G04 #@! TF.GenerationSoftware,KiCad,Pcbnew,(5.1.4)-1*
G04 #@! TF.CreationDate,2020-05-04T16:36:29+09:00*
G04 #@! TF.ProjectId,SPRESENSE_GROVE_ANA,53505245-5345-44e5-9345-5f47524f5645,v0.2*
G04 #@! TF.SameCoordinates,Original*
G04 #@! TF.FileFunction,Copper,L2,Bot*
G04 #@! TF.FilePolarity,Positive*
%FSLAX46Y46*%
G04 Gerber Fmt 4.6, Leading zero omitted, Abs format (unit mm)*
G04 Created by KiCad (PCBNEW (5.1.4)-1) date 2020-05-04 16:36:29*
%MOMM*%
%LPD*%
G04 APERTURE LIST*
%ADD10R,1.350000X1.350000*%
%ADD11C,1.350000*%
%ADD12R,1.700000X1.700000*%
%ADD13O,1.700000X1.700000*%
%ADD14C,0.600000*%
%ADD15C,0.700000*%
%ADD16C,0.254000*%
G04 APERTURE END LIST*
D10*
X136398000Y-111252000D03*
D11*
X134398000Y-111252000D03*
X132398000Y-111252000D03*
X130398000Y-111252000D03*
D12*
X124841000Y-104855000D03*
D13*
X124841000Y-107395000D03*
X124841000Y-109935000D03*
X124841000Y-112475000D03*
X142621000Y-112475000D03*
X142621000Y-109935000D03*
X142621000Y-107395000D03*
D12*
X142621000Y-104855000D03*
D14*
X131064000Y-107315000D03*
D15*
X128851000Y-107315000D02*
X131064000Y-107315000D01*
X124841000Y-104855000D02*
X126391000Y-104855000D01*
X126391000Y-104855000D02*
X128851000Y-107315000D01*
D16*
G36*
X143364109Y-101769005D02*
G01*
X143468101Y-101800402D01*
X143564014Y-101851399D01*
X143648194Y-101920055D01*
X143717440Y-102003758D01*
X143769105Y-102099311D01*
X143801227Y-102203078D01*
X143816000Y-102343641D01*
X143816000Y-103469388D01*
X143715180Y-103415498D01*
X143595482Y-103379188D01*
X143471000Y-103366928D01*
X142906750Y-103370000D01*
X142748000Y-103528750D01*
X142748000Y-104728000D01*
X142768000Y-104728000D01*
X142768000Y-104982000D01*
X142748000Y-104982000D01*
X142748000Y-105002000D01*
X142494000Y-105002000D01*
X142494000Y-104982000D01*
X141294750Y-104982000D01*
X141136000Y-105140750D01*
X141132928Y-105705000D01*
X141145188Y-105829482D01*
X141181498Y-105949180D01*
X141240463Y-106059494D01*
X141319815Y-106156185D01*
X141416506Y-106235537D01*
X141526820Y-106294502D01*
X141595687Y-106315393D01*
X141565866Y-106339866D01*
X141380294Y-106565986D01*
X141242401Y-106823966D01*
X141157487Y-107103889D01*
X141128815Y-107395000D01*
X141157487Y-107686111D01*
X141242401Y-107966034D01*
X141380294Y-108224014D01*
X141565866Y-108450134D01*
X141791986Y-108635706D01*
X141846791Y-108665000D01*
X141791986Y-108694294D01*
X141565866Y-108879866D01*
X141380294Y-109105986D01*
X141242401Y-109363966D01*
X141157487Y-109643889D01*
X141128815Y-109935000D01*
X141157487Y-110226111D01*
X141242401Y-110506034D01*
X141380294Y-110764014D01*
X141565866Y-110990134D01*
X141791986Y-111175706D01*
X141846791Y-111205000D01*
X141791986Y-111234294D01*
X141565866Y-111419866D01*
X141380294Y-111645986D01*
X141242401Y-111903966D01*
X141157487Y-112183889D01*
X141128815Y-112475000D01*
X141157487Y-112766111D01*
X141242401Y-113046034D01*
X141380294Y-113304014D01*
X141565866Y-113530134D01*
X141791986Y-113715706D01*
X142049966Y-113853599D01*
X142329889Y-113938513D01*
X142548050Y-113960000D01*
X142693950Y-113960000D01*
X142912111Y-113938513D01*
X143192034Y-113853599D01*
X143450014Y-113715706D01*
X143676134Y-113530134D01*
X143816001Y-113359706D01*
X143816001Y-118075270D01*
X143801995Y-118218109D01*
X143770599Y-118322099D01*
X143719601Y-118418013D01*
X143650941Y-118502199D01*
X143567243Y-118571439D01*
X143471689Y-118623105D01*
X143367922Y-118655227D01*
X143227359Y-118670000D01*
X124240720Y-118670000D01*
X124097891Y-118655995D01*
X123993901Y-118624599D01*
X123897987Y-118573601D01*
X123813801Y-118504941D01*
X123744561Y-118421243D01*
X123692895Y-118325689D01*
X123660773Y-118221922D01*
X123646000Y-118081359D01*
X123646000Y-113359707D01*
X123785866Y-113530134D01*
X124011986Y-113715706D01*
X124269966Y-113853599D01*
X124549889Y-113938513D01*
X124768050Y-113960000D01*
X124913950Y-113960000D01*
X125132111Y-113938513D01*
X125412034Y-113853599D01*
X125670014Y-113715706D01*
X125896134Y-113530134D01*
X126081706Y-113304014D01*
X126219599Y-113046034D01*
X126304513Y-112766111D01*
X126333185Y-112475000D01*
X126304513Y-112183889D01*
X126295871Y-112155400D01*
X129674205Y-112155400D01*
X129730630Y-112386621D01*
X129964808Y-112495017D01*
X130215633Y-112555645D01*
X130473465Y-112566174D01*
X130728398Y-112526200D01*
X130970633Y-112437259D01*
X131065370Y-112386621D01*
X131121795Y-112155400D01*
X130398000Y-111431605D01*
X129674205Y-112155400D01*
X126295871Y-112155400D01*
X126219599Y-111903966D01*
X126081706Y-111645986D01*
X125896134Y-111419866D01*
X125783544Y-111327465D01*
X129083826Y-111327465D01*
X129123800Y-111582398D01*
X129212741Y-111824633D01*
X129263379Y-111919370D01*
X129494600Y-111975795D01*
X130218395Y-111252000D01*
X130577605Y-111252000D01*
X131301400Y-111975795D01*
X131305441Y-111974809D01*
X131380456Y-112087077D01*
X131562923Y-112269544D01*
X131777482Y-112412907D01*
X132015887Y-112511658D01*
X132268976Y-112562000D01*
X132527024Y-112562000D01*
X132780113Y-112511658D01*
X133018518Y-112412907D01*
X133233077Y-112269544D01*
X133398000Y-112104621D01*
X133562923Y-112269544D01*
X133777482Y-112412907D01*
X134015887Y-112511658D01*
X134268976Y-112562000D01*
X134527024Y-112562000D01*
X134780113Y-112511658D01*
X135018518Y-112412907D01*
X135200513Y-112291303D01*
X135271815Y-112378185D01*
X135368506Y-112457537D01*
X135478820Y-112516502D01*
X135598518Y-112552812D01*
X135723000Y-112565072D01*
X137073000Y-112565072D01*
X137197482Y-112552812D01*
X137317180Y-112516502D01*
X137427494Y-112457537D01*
X137524185Y-112378185D01*
X137603537Y-112281494D01*
X137662502Y-112171180D01*
X137698812Y-112051482D01*
X137711072Y-111927000D01*
X137711072Y-110577000D01*
X137698812Y-110452518D01*
X137662502Y-110332820D01*
X137603537Y-110222506D01*
X137524185Y-110125815D01*
X137427494Y-110046463D01*
X137317180Y-109987498D01*
X137197482Y-109951188D01*
X137073000Y-109938928D01*
X135723000Y-109938928D01*
X135598518Y-109951188D01*
X135478820Y-109987498D01*
X135368506Y-110046463D01*
X135271815Y-110125815D01*
X135200513Y-110212697D01*
X135018518Y-110091093D01*
X134780113Y-109992342D01*
X134527024Y-109942000D01*
X134268976Y-109942000D01*
X134015887Y-109992342D01*
X133777482Y-110091093D01*
X133562923Y-110234456D01*
X133398000Y-110399379D01*
X133233077Y-110234456D01*
X133018518Y-110091093D01*
X132780113Y-109992342D01*
X132527024Y-109942000D01*
X132268976Y-109942000D01*
X132015887Y-109992342D01*
X131777482Y-110091093D01*
X131562923Y-110234456D01*
X131380456Y-110416923D01*
X131305441Y-110529191D01*
X131301400Y-110528205D01*
X130577605Y-111252000D01*
X130218395Y-111252000D01*
X129494600Y-110528205D01*
X129263379Y-110584630D01*
X129154983Y-110818808D01*
X129094355Y-111069633D01*
X129083826Y-111327465D01*
X125783544Y-111327465D01*
X125670014Y-111234294D01*
X125615209Y-111205000D01*
X125670014Y-111175706D01*
X125896134Y-110990134D01*
X126081706Y-110764014D01*
X126219599Y-110506034D01*
X126267356Y-110348600D01*
X129674205Y-110348600D01*
X130398000Y-111072395D01*
X131121795Y-110348600D01*
X131065370Y-110117379D01*
X130831192Y-110008983D01*
X130580367Y-109948355D01*
X130322535Y-109937826D01*
X130067602Y-109977800D01*
X129825367Y-110066741D01*
X129730630Y-110117379D01*
X129674205Y-110348600D01*
X126267356Y-110348600D01*
X126304513Y-110226111D01*
X126333185Y-109935000D01*
X126304513Y-109643889D01*
X126219599Y-109363966D01*
X126081706Y-109105986D01*
X125896134Y-108879866D01*
X125670014Y-108694294D01*
X125615209Y-108665000D01*
X125670014Y-108635706D01*
X125896134Y-108450134D01*
X126081706Y-108224014D01*
X126219599Y-107966034D01*
X126304513Y-107686111D01*
X126333185Y-107395000D01*
X126304513Y-107103889D01*
X126219599Y-106823966D01*
X126081706Y-106565986D01*
X125896134Y-106339866D01*
X125866313Y-106315393D01*
X125935180Y-106294502D01*
X126045494Y-106235537D01*
X126142185Y-106156185D01*
X126212953Y-106069953D01*
X128120284Y-107977284D01*
X128151130Y-108014870D01*
X128301116Y-108137960D01*
X128472233Y-108229424D01*
X128614691Y-108272638D01*
X128657905Y-108285747D01*
X128850999Y-108304765D01*
X128899379Y-108300000D01*
X131112380Y-108300000D01*
X131257094Y-108285747D01*
X131442767Y-108229424D01*
X131613884Y-108137960D01*
X131763870Y-108014870D01*
X131886960Y-107864884D01*
X131978424Y-107693767D01*
X132034747Y-107508094D01*
X132053765Y-107315000D01*
X132034747Y-107121906D01*
X131978424Y-106936233D01*
X131886960Y-106765116D01*
X131763870Y-106615130D01*
X131613884Y-106492040D01*
X131442767Y-106400576D01*
X131257094Y-106344253D01*
X131112380Y-106330000D01*
X129259000Y-106330000D01*
X127121716Y-104192716D01*
X127090870Y-104155130D01*
X126940884Y-104032040D01*
X126890296Y-104005000D01*
X141132928Y-104005000D01*
X141136000Y-104569250D01*
X141294750Y-104728000D01*
X142494000Y-104728000D01*
X142494000Y-103528750D01*
X142335250Y-103370000D01*
X141771000Y-103366928D01*
X141646518Y-103379188D01*
X141526820Y-103415498D01*
X141416506Y-103474463D01*
X141319815Y-103553815D01*
X141240463Y-103650506D01*
X141181498Y-103760820D01*
X141145188Y-103880518D01*
X141132928Y-104005000D01*
X126890296Y-104005000D01*
X126769767Y-103940576D01*
X126584094Y-103884253D01*
X126439380Y-103870000D01*
X126391000Y-103865235D01*
X126342620Y-103870000D01*
X126313621Y-103870000D01*
X126280502Y-103760820D01*
X126221537Y-103650506D01*
X126142185Y-103553815D01*
X126045494Y-103474463D01*
X125935180Y-103415498D01*
X125815482Y-103379188D01*
X125691000Y-103366928D01*
X123991000Y-103366928D01*
X123866518Y-103379188D01*
X123746820Y-103415498D01*
X123646000Y-103469388D01*
X123646000Y-102349720D01*
X123660005Y-102206891D01*
X123691402Y-102102899D01*
X123742399Y-102006986D01*
X123811055Y-101922806D01*
X123894758Y-101853560D01*
X123990311Y-101801895D01*
X124094078Y-101769773D01*
X124234641Y-101755000D01*
X143221280Y-101755000D01*
X143364109Y-101769005D01*
X143364109Y-101769005D01*
G37*
X143364109Y-101769005D02*
X143468101Y-101800402D01*
X143564014Y-101851399D01*
X143648194Y-101920055D01*
X143717440Y-102003758D01*
X143769105Y-102099311D01*
X143801227Y-102203078D01*
X143816000Y-102343641D01*
X143816000Y-103469388D01*
X143715180Y-103415498D01*
X143595482Y-103379188D01*
X143471000Y-103366928D01*
X142906750Y-103370000D01*
X142748000Y-103528750D01*
X142748000Y-104728000D01*
X142768000Y-104728000D01*
X142768000Y-104982000D01*
X142748000Y-104982000D01*
X142748000Y-105002000D01*
X142494000Y-105002000D01*
X142494000Y-104982000D01*
X141294750Y-104982000D01*
X141136000Y-105140750D01*
X141132928Y-105705000D01*
X141145188Y-105829482D01*
X141181498Y-105949180D01*
X141240463Y-106059494D01*
X141319815Y-106156185D01*
X141416506Y-106235537D01*
X141526820Y-106294502D01*
X141595687Y-106315393D01*
X141565866Y-106339866D01*
X141380294Y-106565986D01*
X141242401Y-106823966D01*
X141157487Y-107103889D01*
X141128815Y-107395000D01*
X141157487Y-107686111D01*
X141242401Y-107966034D01*
X141380294Y-108224014D01*
X141565866Y-108450134D01*
X141791986Y-108635706D01*
X141846791Y-108665000D01*
X141791986Y-108694294D01*
X141565866Y-108879866D01*
X141380294Y-109105986D01*
X141242401Y-109363966D01*
X141157487Y-109643889D01*
X141128815Y-109935000D01*
X141157487Y-110226111D01*
X141242401Y-110506034D01*
X141380294Y-110764014D01*
X141565866Y-110990134D01*
X141791986Y-111175706D01*
X141846791Y-111205000D01*
X141791986Y-111234294D01*
X141565866Y-111419866D01*
X141380294Y-111645986D01*
X141242401Y-111903966D01*
X141157487Y-112183889D01*
X141128815Y-112475000D01*
X141157487Y-112766111D01*
X141242401Y-113046034D01*
X141380294Y-113304014D01*
X141565866Y-113530134D01*
X141791986Y-113715706D01*
X142049966Y-113853599D01*
X142329889Y-113938513D01*
X142548050Y-113960000D01*
X142693950Y-113960000D01*
X142912111Y-113938513D01*
X143192034Y-113853599D01*
X143450014Y-113715706D01*
X143676134Y-113530134D01*
X143816001Y-113359706D01*
X143816001Y-118075270D01*
X143801995Y-118218109D01*
X143770599Y-118322099D01*
X143719601Y-118418013D01*
X143650941Y-118502199D01*
X143567243Y-118571439D01*
X143471689Y-118623105D01*
X143367922Y-118655227D01*
X143227359Y-118670000D01*
X124240720Y-118670000D01*
X124097891Y-118655995D01*
X123993901Y-118624599D01*
X123897987Y-118573601D01*
X123813801Y-118504941D01*
X123744561Y-118421243D01*
X123692895Y-118325689D01*
X123660773Y-118221922D01*
X123646000Y-118081359D01*
X123646000Y-113359707D01*
X123785866Y-113530134D01*
X124011986Y-113715706D01*
X124269966Y-113853599D01*
X124549889Y-113938513D01*
X124768050Y-113960000D01*
X124913950Y-113960000D01*
X125132111Y-113938513D01*
X125412034Y-113853599D01*
X125670014Y-113715706D01*
X125896134Y-113530134D01*
X126081706Y-113304014D01*
X126219599Y-113046034D01*
X126304513Y-112766111D01*
X126333185Y-112475000D01*
X126304513Y-112183889D01*
X126295871Y-112155400D01*
X129674205Y-112155400D01*
X129730630Y-112386621D01*
X129964808Y-112495017D01*
X130215633Y-112555645D01*
X130473465Y-112566174D01*
X130728398Y-112526200D01*
X130970633Y-112437259D01*
X131065370Y-112386621D01*
X131121795Y-112155400D01*
X130398000Y-111431605D01*
X129674205Y-112155400D01*
X126295871Y-112155400D01*
X126219599Y-111903966D01*
X126081706Y-111645986D01*
X125896134Y-111419866D01*
X125783544Y-111327465D01*
X129083826Y-111327465D01*
X129123800Y-111582398D01*
X129212741Y-111824633D01*
X129263379Y-111919370D01*
X129494600Y-111975795D01*
X130218395Y-111252000D01*
X130577605Y-111252000D01*
X131301400Y-111975795D01*
X131305441Y-111974809D01*
X131380456Y-112087077D01*
X131562923Y-112269544D01*
X131777482Y-112412907D01*
X132015887Y-112511658D01*
X132268976Y-112562000D01*
X132527024Y-112562000D01*
X132780113Y-112511658D01*
X133018518Y-112412907D01*
X133233077Y-112269544D01*
X133398000Y-112104621D01*
X133562923Y-112269544D01*
X133777482Y-112412907D01*
X134015887Y-112511658D01*
X134268976Y-112562000D01*
X134527024Y-112562000D01*
X134780113Y-112511658D01*
X135018518Y-112412907D01*
X135200513Y-112291303D01*
X135271815Y-112378185D01*
X135368506Y-112457537D01*
X135478820Y-112516502D01*
X135598518Y-112552812D01*
X135723000Y-112565072D01*
X137073000Y-112565072D01*
X137197482Y-112552812D01*
X137317180Y-112516502D01*
X137427494Y-112457537D01*
X137524185Y-112378185D01*
X137603537Y-112281494D01*
X137662502Y-112171180D01*
X137698812Y-112051482D01*
X137711072Y-111927000D01*
X137711072Y-110577000D01*
X137698812Y-110452518D01*
X137662502Y-110332820D01*
X137603537Y-110222506D01*
X137524185Y-110125815D01*
X137427494Y-110046463D01*
X137317180Y-109987498D01*
X137197482Y-109951188D01*
X137073000Y-109938928D01*
X135723000Y-109938928D01*
X135598518Y-109951188D01*
X135478820Y-109987498D01*
X135368506Y-110046463D01*
X135271815Y-110125815D01*
X135200513Y-110212697D01*
X135018518Y-110091093D01*
X134780113Y-109992342D01*
X134527024Y-109942000D01*
X134268976Y-109942000D01*
X134015887Y-109992342D01*
X133777482Y-110091093D01*
X133562923Y-110234456D01*
X133398000Y-110399379D01*
X133233077Y-110234456D01*
X133018518Y-110091093D01*
X132780113Y-109992342D01*
X132527024Y-109942000D01*
X132268976Y-109942000D01*
X132015887Y-109992342D01*
X131777482Y-110091093D01*
X131562923Y-110234456D01*
X131380456Y-110416923D01*
X131305441Y-110529191D01*
X131301400Y-110528205D01*
X130577605Y-111252000D01*
X130218395Y-111252000D01*
X129494600Y-110528205D01*
X129263379Y-110584630D01*
X129154983Y-110818808D01*
X129094355Y-111069633D01*
X129083826Y-111327465D01*
X125783544Y-111327465D01*
X125670014Y-111234294D01*
X125615209Y-111205000D01*
X125670014Y-111175706D01*
X125896134Y-110990134D01*
X126081706Y-110764014D01*
X126219599Y-110506034D01*
X126267356Y-110348600D01*
X129674205Y-110348600D01*
X130398000Y-111072395D01*
X131121795Y-110348600D01*
X131065370Y-110117379D01*
X130831192Y-110008983D01*
X130580367Y-109948355D01*
X130322535Y-109937826D01*
X130067602Y-109977800D01*
X129825367Y-110066741D01*
X129730630Y-110117379D01*
X129674205Y-110348600D01*
X126267356Y-110348600D01*
X126304513Y-110226111D01*
X126333185Y-109935000D01*
X126304513Y-109643889D01*
X126219599Y-109363966D01*
X126081706Y-109105986D01*
X125896134Y-108879866D01*
X125670014Y-108694294D01*
X125615209Y-108665000D01*
X125670014Y-108635706D01*
X125896134Y-108450134D01*
X126081706Y-108224014D01*
X126219599Y-107966034D01*
X126304513Y-107686111D01*
X126333185Y-107395000D01*
X126304513Y-107103889D01*
X126219599Y-106823966D01*
X126081706Y-106565986D01*
X125896134Y-106339866D01*
X125866313Y-106315393D01*
X125935180Y-106294502D01*
X126045494Y-106235537D01*
X126142185Y-106156185D01*
X126212953Y-106069953D01*
X128120284Y-107977284D01*
X128151130Y-108014870D01*
X128301116Y-108137960D01*
X128472233Y-108229424D01*
X128614691Y-108272638D01*
X128657905Y-108285747D01*
X128850999Y-108304765D01*
X128899379Y-108300000D01*
X131112380Y-108300000D01*
X131257094Y-108285747D01*
X131442767Y-108229424D01*
X131613884Y-108137960D01*
X131763870Y-108014870D01*
X131886960Y-107864884D01*
X131978424Y-107693767D01*
X132034747Y-107508094D01*
X132053765Y-107315000D01*
X132034747Y-107121906D01*
X131978424Y-106936233D01*
X131886960Y-106765116D01*
X131763870Y-106615130D01*
X131613884Y-106492040D01*
X131442767Y-106400576D01*
X131257094Y-106344253D01*
X131112380Y-106330000D01*
X129259000Y-106330000D01*
X127121716Y-104192716D01*
X127090870Y-104155130D01*
X126940884Y-104032040D01*
X126890296Y-104005000D01*
X141132928Y-104005000D01*
X141136000Y-104569250D01*
X141294750Y-104728000D01*
X142494000Y-104728000D01*
X142494000Y-103528750D01*
X142335250Y-103370000D01*
X141771000Y-103366928D01*
X141646518Y-103379188D01*
X141526820Y-103415498D01*
X141416506Y-103474463D01*
X141319815Y-103553815D01*
X141240463Y-103650506D01*
X141181498Y-103760820D01*
X141145188Y-103880518D01*
X141132928Y-104005000D01*
X126890296Y-104005000D01*
X126769767Y-103940576D01*
X126584094Y-103884253D01*
X126439380Y-103870000D01*
X126391000Y-103865235D01*
X126342620Y-103870000D01*
X126313621Y-103870000D01*
X126280502Y-103760820D01*
X126221537Y-103650506D01*
X126142185Y-103553815D01*
X126045494Y-103474463D01*
X125935180Y-103415498D01*
X125815482Y-103379188D01*
X125691000Y-103366928D01*
X123991000Y-103366928D01*
X123866518Y-103379188D01*
X123746820Y-103415498D01*
X123646000Y-103469388D01*
X123646000Y-102349720D01*
X123660005Y-102206891D01*
X123691402Y-102102899D01*
X123742399Y-102006986D01*
X123811055Y-101922806D01*
X123894758Y-101853560D01*
X123990311Y-101801895D01*
X124094078Y-101769773D01*
X124234641Y-101755000D01*
X143221280Y-101755000D01*
X143364109Y-101769005D01*
M02*
