G04 #@! TF.GenerationSoftware,KiCad,Pcbnew,(5.1.4)-1*
G04 #@! TF.CreationDate,2020-05-04T16:36:28+09:00*
G04 #@! TF.ProjectId,SPRESENSE_GROVE_ANA,53505245-5345-44e5-9345-5f47524f5645,v0.2*
G04 #@! TF.SameCoordinates,Original*
G04 #@! TF.FileFunction,Copper,L1,Top*
G04 #@! TF.FilePolarity,Positive*
%FSLAX46Y46*%
G04 Gerber Fmt 4.6, Leading zero omitted, Abs format (unit mm)*
G04 Created by KiCad (PCBNEW (5.1.4)-1) date 2020-05-04 16:36:28*
%MOMM*%
%LPD*%
G04 APERTURE LIST*
%ADD10C,0.100000*%
%ADD11C,0.875000*%
%ADD12R,1.350000X1.350000*%
%ADD13C,1.350000*%
%ADD14R,1.700000X1.700000*%
%ADD15O,1.700000X1.700000*%
%ADD16C,0.600000*%
%ADD17C,0.250000*%
%ADD18C,0.700000*%
%ADD19C,0.254000*%
G04 APERTURE END LIST*
D10*
G36*
X132738691Y-106904053D02*
G01*
X132759926Y-106907203D01*
X132780750Y-106912419D01*
X132800962Y-106919651D01*
X132820368Y-106928830D01*
X132838781Y-106939866D01*
X132856024Y-106952654D01*
X132871930Y-106967070D01*
X132886346Y-106982976D01*
X132899134Y-107000219D01*
X132910170Y-107018632D01*
X132919349Y-107038038D01*
X132926581Y-107058250D01*
X132931797Y-107079074D01*
X132934947Y-107100309D01*
X132936000Y-107121750D01*
X132936000Y-107559250D01*
X132934947Y-107580691D01*
X132931797Y-107601926D01*
X132926581Y-107622750D01*
X132919349Y-107642962D01*
X132910170Y-107662368D01*
X132899134Y-107680781D01*
X132886346Y-107698024D01*
X132871930Y-107713930D01*
X132856024Y-107728346D01*
X132838781Y-107741134D01*
X132820368Y-107752170D01*
X132800962Y-107761349D01*
X132780750Y-107768581D01*
X132759926Y-107773797D01*
X132738691Y-107776947D01*
X132717250Y-107778000D01*
X132204750Y-107778000D01*
X132183309Y-107776947D01*
X132162074Y-107773797D01*
X132141250Y-107768581D01*
X132121038Y-107761349D01*
X132101632Y-107752170D01*
X132083219Y-107741134D01*
X132065976Y-107728346D01*
X132050070Y-107713930D01*
X132035654Y-107698024D01*
X132022866Y-107680781D01*
X132011830Y-107662368D01*
X132002651Y-107642962D01*
X131995419Y-107622750D01*
X131990203Y-107601926D01*
X131987053Y-107580691D01*
X131986000Y-107559250D01*
X131986000Y-107121750D01*
X131987053Y-107100309D01*
X131990203Y-107079074D01*
X131995419Y-107058250D01*
X132002651Y-107038038D01*
X132011830Y-107018632D01*
X132022866Y-107000219D01*
X132035654Y-106982976D01*
X132050070Y-106967070D01*
X132065976Y-106952654D01*
X132083219Y-106939866D01*
X132101632Y-106928830D01*
X132121038Y-106919651D01*
X132141250Y-106912419D01*
X132162074Y-106907203D01*
X132183309Y-106904053D01*
X132204750Y-106903000D01*
X132717250Y-106903000D01*
X132738691Y-106904053D01*
X132738691Y-106904053D01*
G37*
D11*
X132461000Y-107340500D03*
D10*
G36*
X132738691Y-105329053D02*
G01*
X132759926Y-105332203D01*
X132780750Y-105337419D01*
X132800962Y-105344651D01*
X132820368Y-105353830D01*
X132838781Y-105364866D01*
X132856024Y-105377654D01*
X132871930Y-105392070D01*
X132886346Y-105407976D01*
X132899134Y-105425219D01*
X132910170Y-105443632D01*
X132919349Y-105463038D01*
X132926581Y-105483250D01*
X132931797Y-105504074D01*
X132934947Y-105525309D01*
X132936000Y-105546750D01*
X132936000Y-105984250D01*
X132934947Y-106005691D01*
X132931797Y-106026926D01*
X132926581Y-106047750D01*
X132919349Y-106067962D01*
X132910170Y-106087368D01*
X132899134Y-106105781D01*
X132886346Y-106123024D01*
X132871930Y-106138930D01*
X132856024Y-106153346D01*
X132838781Y-106166134D01*
X132820368Y-106177170D01*
X132800962Y-106186349D01*
X132780750Y-106193581D01*
X132759926Y-106198797D01*
X132738691Y-106201947D01*
X132717250Y-106203000D01*
X132204750Y-106203000D01*
X132183309Y-106201947D01*
X132162074Y-106198797D01*
X132141250Y-106193581D01*
X132121038Y-106186349D01*
X132101632Y-106177170D01*
X132083219Y-106166134D01*
X132065976Y-106153346D01*
X132050070Y-106138930D01*
X132035654Y-106123024D01*
X132022866Y-106105781D01*
X132011830Y-106087368D01*
X132002651Y-106067962D01*
X131995419Y-106047750D01*
X131990203Y-106026926D01*
X131987053Y-106005691D01*
X131986000Y-105984250D01*
X131986000Y-105546750D01*
X131987053Y-105525309D01*
X131990203Y-105504074D01*
X131995419Y-105483250D01*
X132002651Y-105463038D01*
X132011830Y-105443632D01*
X132022866Y-105425219D01*
X132035654Y-105407976D01*
X132050070Y-105392070D01*
X132065976Y-105377654D01*
X132083219Y-105364866D01*
X132101632Y-105353830D01*
X132121038Y-105344651D01*
X132141250Y-105337419D01*
X132162074Y-105332203D01*
X132183309Y-105329053D01*
X132204750Y-105328000D01*
X132717250Y-105328000D01*
X132738691Y-105329053D01*
X132738691Y-105329053D01*
G37*
D11*
X132461000Y-105765500D03*
D10*
G36*
X139965691Y-107603053D02*
G01*
X139986926Y-107606203D01*
X140007750Y-107611419D01*
X140027962Y-107618651D01*
X140047368Y-107627830D01*
X140065781Y-107638866D01*
X140083024Y-107651654D01*
X140098930Y-107666070D01*
X140113346Y-107681976D01*
X140126134Y-107699219D01*
X140137170Y-107717632D01*
X140146349Y-107737038D01*
X140153581Y-107757250D01*
X140158797Y-107778074D01*
X140161947Y-107799309D01*
X140163000Y-107820750D01*
X140163000Y-108333250D01*
X140161947Y-108354691D01*
X140158797Y-108375926D01*
X140153581Y-108396750D01*
X140146349Y-108416962D01*
X140137170Y-108436368D01*
X140126134Y-108454781D01*
X140113346Y-108472024D01*
X140098930Y-108487930D01*
X140083024Y-108502346D01*
X140065781Y-108515134D01*
X140047368Y-108526170D01*
X140027962Y-108535349D01*
X140007750Y-108542581D01*
X139986926Y-108547797D01*
X139965691Y-108550947D01*
X139944250Y-108552000D01*
X139506750Y-108552000D01*
X139485309Y-108550947D01*
X139464074Y-108547797D01*
X139443250Y-108542581D01*
X139423038Y-108535349D01*
X139403632Y-108526170D01*
X139385219Y-108515134D01*
X139367976Y-108502346D01*
X139352070Y-108487930D01*
X139337654Y-108472024D01*
X139324866Y-108454781D01*
X139313830Y-108436368D01*
X139304651Y-108416962D01*
X139297419Y-108396750D01*
X139292203Y-108375926D01*
X139289053Y-108354691D01*
X139288000Y-108333250D01*
X139288000Y-107820750D01*
X139289053Y-107799309D01*
X139292203Y-107778074D01*
X139297419Y-107757250D01*
X139304651Y-107737038D01*
X139313830Y-107717632D01*
X139324866Y-107699219D01*
X139337654Y-107681976D01*
X139352070Y-107666070D01*
X139367976Y-107651654D01*
X139385219Y-107638866D01*
X139403632Y-107627830D01*
X139423038Y-107618651D01*
X139443250Y-107611419D01*
X139464074Y-107606203D01*
X139485309Y-107603053D01*
X139506750Y-107602000D01*
X139944250Y-107602000D01*
X139965691Y-107603053D01*
X139965691Y-107603053D01*
G37*
D11*
X139725500Y-108077000D03*
D10*
G36*
X138390691Y-107603053D02*
G01*
X138411926Y-107606203D01*
X138432750Y-107611419D01*
X138452962Y-107618651D01*
X138472368Y-107627830D01*
X138490781Y-107638866D01*
X138508024Y-107651654D01*
X138523930Y-107666070D01*
X138538346Y-107681976D01*
X138551134Y-107699219D01*
X138562170Y-107717632D01*
X138571349Y-107737038D01*
X138578581Y-107757250D01*
X138583797Y-107778074D01*
X138586947Y-107799309D01*
X138588000Y-107820750D01*
X138588000Y-108333250D01*
X138586947Y-108354691D01*
X138583797Y-108375926D01*
X138578581Y-108396750D01*
X138571349Y-108416962D01*
X138562170Y-108436368D01*
X138551134Y-108454781D01*
X138538346Y-108472024D01*
X138523930Y-108487930D01*
X138508024Y-108502346D01*
X138490781Y-108515134D01*
X138472368Y-108526170D01*
X138452962Y-108535349D01*
X138432750Y-108542581D01*
X138411926Y-108547797D01*
X138390691Y-108550947D01*
X138369250Y-108552000D01*
X137931750Y-108552000D01*
X137910309Y-108550947D01*
X137889074Y-108547797D01*
X137868250Y-108542581D01*
X137848038Y-108535349D01*
X137828632Y-108526170D01*
X137810219Y-108515134D01*
X137792976Y-108502346D01*
X137777070Y-108487930D01*
X137762654Y-108472024D01*
X137749866Y-108454781D01*
X137738830Y-108436368D01*
X137729651Y-108416962D01*
X137722419Y-108396750D01*
X137717203Y-108375926D01*
X137714053Y-108354691D01*
X137713000Y-108333250D01*
X137713000Y-107820750D01*
X137714053Y-107799309D01*
X137717203Y-107778074D01*
X137722419Y-107757250D01*
X137729651Y-107737038D01*
X137738830Y-107717632D01*
X137749866Y-107699219D01*
X137762654Y-107681976D01*
X137777070Y-107666070D01*
X137792976Y-107651654D01*
X137810219Y-107638866D01*
X137828632Y-107627830D01*
X137848038Y-107618651D01*
X137868250Y-107611419D01*
X137889074Y-107606203D01*
X137910309Y-107603053D01*
X137931750Y-107602000D01*
X138369250Y-107602000D01*
X138390691Y-107603053D01*
X138390691Y-107603053D01*
G37*
D11*
X138150500Y-108077000D03*
D12*
X136398000Y-111252000D03*
D13*
X134398000Y-111252000D03*
X132398000Y-111252000D03*
X130398000Y-111252000D03*
D14*
X124841000Y-104855000D03*
D15*
X124841000Y-107395000D03*
X124841000Y-109935000D03*
X124841000Y-112475000D03*
X142621000Y-112475000D03*
X142621000Y-109935000D03*
X142621000Y-107395000D03*
D14*
X142621000Y-104855000D03*
D10*
G36*
X129297691Y-107603053D02*
G01*
X129318926Y-107606203D01*
X129339750Y-107611419D01*
X129359962Y-107618651D01*
X129379368Y-107627830D01*
X129397781Y-107638866D01*
X129415024Y-107651654D01*
X129430930Y-107666070D01*
X129445346Y-107681976D01*
X129458134Y-107699219D01*
X129469170Y-107717632D01*
X129478349Y-107737038D01*
X129485581Y-107757250D01*
X129490797Y-107778074D01*
X129493947Y-107799309D01*
X129495000Y-107820750D01*
X129495000Y-108333250D01*
X129493947Y-108354691D01*
X129490797Y-108375926D01*
X129485581Y-108396750D01*
X129478349Y-108416962D01*
X129469170Y-108436368D01*
X129458134Y-108454781D01*
X129445346Y-108472024D01*
X129430930Y-108487930D01*
X129415024Y-108502346D01*
X129397781Y-108515134D01*
X129379368Y-108526170D01*
X129359962Y-108535349D01*
X129339750Y-108542581D01*
X129318926Y-108547797D01*
X129297691Y-108550947D01*
X129276250Y-108552000D01*
X128838750Y-108552000D01*
X128817309Y-108550947D01*
X128796074Y-108547797D01*
X128775250Y-108542581D01*
X128755038Y-108535349D01*
X128735632Y-108526170D01*
X128717219Y-108515134D01*
X128699976Y-108502346D01*
X128684070Y-108487930D01*
X128669654Y-108472024D01*
X128656866Y-108454781D01*
X128645830Y-108436368D01*
X128636651Y-108416962D01*
X128629419Y-108396750D01*
X128624203Y-108375926D01*
X128621053Y-108354691D01*
X128620000Y-108333250D01*
X128620000Y-107820750D01*
X128621053Y-107799309D01*
X128624203Y-107778074D01*
X128629419Y-107757250D01*
X128636651Y-107737038D01*
X128645830Y-107717632D01*
X128656866Y-107699219D01*
X128669654Y-107681976D01*
X128684070Y-107666070D01*
X128699976Y-107651654D01*
X128717219Y-107638866D01*
X128735632Y-107627830D01*
X128755038Y-107618651D01*
X128775250Y-107611419D01*
X128796074Y-107606203D01*
X128817309Y-107603053D01*
X128838750Y-107602000D01*
X129276250Y-107602000D01*
X129297691Y-107603053D01*
X129297691Y-107603053D01*
G37*
D11*
X129057500Y-108077000D03*
D10*
G36*
X127722691Y-107603053D02*
G01*
X127743926Y-107606203D01*
X127764750Y-107611419D01*
X127784962Y-107618651D01*
X127804368Y-107627830D01*
X127822781Y-107638866D01*
X127840024Y-107651654D01*
X127855930Y-107666070D01*
X127870346Y-107681976D01*
X127883134Y-107699219D01*
X127894170Y-107717632D01*
X127903349Y-107737038D01*
X127910581Y-107757250D01*
X127915797Y-107778074D01*
X127918947Y-107799309D01*
X127920000Y-107820750D01*
X127920000Y-108333250D01*
X127918947Y-108354691D01*
X127915797Y-108375926D01*
X127910581Y-108396750D01*
X127903349Y-108416962D01*
X127894170Y-108436368D01*
X127883134Y-108454781D01*
X127870346Y-108472024D01*
X127855930Y-108487930D01*
X127840024Y-108502346D01*
X127822781Y-108515134D01*
X127804368Y-108526170D01*
X127784962Y-108535349D01*
X127764750Y-108542581D01*
X127743926Y-108547797D01*
X127722691Y-108550947D01*
X127701250Y-108552000D01*
X127263750Y-108552000D01*
X127242309Y-108550947D01*
X127221074Y-108547797D01*
X127200250Y-108542581D01*
X127180038Y-108535349D01*
X127160632Y-108526170D01*
X127142219Y-108515134D01*
X127124976Y-108502346D01*
X127109070Y-108487930D01*
X127094654Y-108472024D01*
X127081866Y-108454781D01*
X127070830Y-108436368D01*
X127061651Y-108416962D01*
X127054419Y-108396750D01*
X127049203Y-108375926D01*
X127046053Y-108354691D01*
X127045000Y-108333250D01*
X127045000Y-107820750D01*
X127046053Y-107799309D01*
X127049203Y-107778074D01*
X127054419Y-107757250D01*
X127061651Y-107737038D01*
X127070830Y-107717632D01*
X127081866Y-107699219D01*
X127094654Y-107681976D01*
X127109070Y-107666070D01*
X127124976Y-107651654D01*
X127142219Y-107638866D01*
X127160632Y-107627830D01*
X127180038Y-107618651D01*
X127200250Y-107611419D01*
X127221074Y-107606203D01*
X127242309Y-107603053D01*
X127263750Y-107602000D01*
X127701250Y-107602000D01*
X127722691Y-107603053D01*
X127722691Y-107603053D01*
G37*
D11*
X127482500Y-108077000D03*
D10*
G36*
X127785691Y-104440053D02*
G01*
X127806926Y-104443203D01*
X127827750Y-104448419D01*
X127847962Y-104455651D01*
X127867368Y-104464830D01*
X127885781Y-104475866D01*
X127903024Y-104488654D01*
X127918930Y-104503070D01*
X127933346Y-104518976D01*
X127946134Y-104536219D01*
X127957170Y-104554632D01*
X127966349Y-104574038D01*
X127973581Y-104594250D01*
X127978797Y-104615074D01*
X127981947Y-104636309D01*
X127983000Y-104657750D01*
X127983000Y-105095250D01*
X127981947Y-105116691D01*
X127978797Y-105137926D01*
X127973581Y-105158750D01*
X127966349Y-105178962D01*
X127957170Y-105198368D01*
X127946134Y-105216781D01*
X127933346Y-105234024D01*
X127918930Y-105249930D01*
X127903024Y-105264346D01*
X127885781Y-105277134D01*
X127867368Y-105288170D01*
X127847962Y-105297349D01*
X127827750Y-105304581D01*
X127806926Y-105309797D01*
X127785691Y-105312947D01*
X127764250Y-105314000D01*
X127251750Y-105314000D01*
X127230309Y-105312947D01*
X127209074Y-105309797D01*
X127188250Y-105304581D01*
X127168038Y-105297349D01*
X127148632Y-105288170D01*
X127130219Y-105277134D01*
X127112976Y-105264346D01*
X127097070Y-105249930D01*
X127082654Y-105234024D01*
X127069866Y-105216781D01*
X127058830Y-105198368D01*
X127049651Y-105178962D01*
X127042419Y-105158750D01*
X127037203Y-105137926D01*
X127034053Y-105116691D01*
X127033000Y-105095250D01*
X127033000Y-104657750D01*
X127034053Y-104636309D01*
X127037203Y-104615074D01*
X127042419Y-104594250D01*
X127049651Y-104574038D01*
X127058830Y-104554632D01*
X127069866Y-104536219D01*
X127082654Y-104518976D01*
X127097070Y-104503070D01*
X127112976Y-104488654D01*
X127130219Y-104475866D01*
X127148632Y-104464830D01*
X127168038Y-104455651D01*
X127188250Y-104448419D01*
X127209074Y-104443203D01*
X127230309Y-104440053D01*
X127251750Y-104439000D01*
X127764250Y-104439000D01*
X127785691Y-104440053D01*
X127785691Y-104440053D01*
G37*
D11*
X127508000Y-104876500D03*
D10*
G36*
X127785691Y-106015053D02*
G01*
X127806926Y-106018203D01*
X127827750Y-106023419D01*
X127847962Y-106030651D01*
X127867368Y-106039830D01*
X127885781Y-106050866D01*
X127903024Y-106063654D01*
X127918930Y-106078070D01*
X127933346Y-106093976D01*
X127946134Y-106111219D01*
X127957170Y-106129632D01*
X127966349Y-106149038D01*
X127973581Y-106169250D01*
X127978797Y-106190074D01*
X127981947Y-106211309D01*
X127983000Y-106232750D01*
X127983000Y-106670250D01*
X127981947Y-106691691D01*
X127978797Y-106712926D01*
X127973581Y-106733750D01*
X127966349Y-106753962D01*
X127957170Y-106773368D01*
X127946134Y-106791781D01*
X127933346Y-106809024D01*
X127918930Y-106824930D01*
X127903024Y-106839346D01*
X127885781Y-106852134D01*
X127867368Y-106863170D01*
X127847962Y-106872349D01*
X127827750Y-106879581D01*
X127806926Y-106884797D01*
X127785691Y-106887947D01*
X127764250Y-106889000D01*
X127251750Y-106889000D01*
X127230309Y-106887947D01*
X127209074Y-106884797D01*
X127188250Y-106879581D01*
X127168038Y-106872349D01*
X127148632Y-106863170D01*
X127130219Y-106852134D01*
X127112976Y-106839346D01*
X127097070Y-106824930D01*
X127082654Y-106809024D01*
X127069866Y-106791781D01*
X127058830Y-106773368D01*
X127049651Y-106753962D01*
X127042419Y-106733750D01*
X127037203Y-106712926D01*
X127034053Y-106691691D01*
X127033000Y-106670250D01*
X127033000Y-106232750D01*
X127034053Y-106211309D01*
X127037203Y-106190074D01*
X127042419Y-106169250D01*
X127049651Y-106149038D01*
X127058830Y-106129632D01*
X127069866Y-106111219D01*
X127082654Y-106093976D01*
X127097070Y-106078070D01*
X127112976Y-106063654D01*
X127130219Y-106050866D01*
X127148632Y-106039830D01*
X127168038Y-106030651D01*
X127188250Y-106023419D01*
X127209074Y-106018203D01*
X127230309Y-106015053D01*
X127251750Y-106014000D01*
X127764250Y-106014000D01*
X127785691Y-106015053D01*
X127785691Y-106015053D01*
G37*
D11*
X127508000Y-106451500D03*
D10*
G36*
X139977691Y-104313053D02*
G01*
X139998926Y-104316203D01*
X140019750Y-104321419D01*
X140039962Y-104328651D01*
X140059368Y-104337830D01*
X140077781Y-104348866D01*
X140095024Y-104361654D01*
X140110930Y-104376070D01*
X140125346Y-104391976D01*
X140138134Y-104409219D01*
X140149170Y-104427632D01*
X140158349Y-104447038D01*
X140165581Y-104467250D01*
X140170797Y-104488074D01*
X140173947Y-104509309D01*
X140175000Y-104530750D01*
X140175000Y-104968250D01*
X140173947Y-104989691D01*
X140170797Y-105010926D01*
X140165581Y-105031750D01*
X140158349Y-105051962D01*
X140149170Y-105071368D01*
X140138134Y-105089781D01*
X140125346Y-105107024D01*
X140110930Y-105122930D01*
X140095024Y-105137346D01*
X140077781Y-105150134D01*
X140059368Y-105161170D01*
X140039962Y-105170349D01*
X140019750Y-105177581D01*
X139998926Y-105182797D01*
X139977691Y-105185947D01*
X139956250Y-105187000D01*
X139443750Y-105187000D01*
X139422309Y-105185947D01*
X139401074Y-105182797D01*
X139380250Y-105177581D01*
X139360038Y-105170349D01*
X139340632Y-105161170D01*
X139322219Y-105150134D01*
X139304976Y-105137346D01*
X139289070Y-105122930D01*
X139274654Y-105107024D01*
X139261866Y-105089781D01*
X139250830Y-105071368D01*
X139241651Y-105051962D01*
X139234419Y-105031750D01*
X139229203Y-105010926D01*
X139226053Y-104989691D01*
X139225000Y-104968250D01*
X139225000Y-104530750D01*
X139226053Y-104509309D01*
X139229203Y-104488074D01*
X139234419Y-104467250D01*
X139241651Y-104447038D01*
X139250830Y-104427632D01*
X139261866Y-104409219D01*
X139274654Y-104391976D01*
X139289070Y-104376070D01*
X139304976Y-104361654D01*
X139322219Y-104348866D01*
X139340632Y-104337830D01*
X139360038Y-104328651D01*
X139380250Y-104321419D01*
X139401074Y-104316203D01*
X139422309Y-104313053D01*
X139443750Y-104312000D01*
X139956250Y-104312000D01*
X139977691Y-104313053D01*
X139977691Y-104313053D01*
G37*
D11*
X139700000Y-104749500D03*
D10*
G36*
X139977691Y-105888053D02*
G01*
X139998926Y-105891203D01*
X140019750Y-105896419D01*
X140039962Y-105903651D01*
X140059368Y-105912830D01*
X140077781Y-105923866D01*
X140095024Y-105936654D01*
X140110930Y-105951070D01*
X140125346Y-105966976D01*
X140138134Y-105984219D01*
X140149170Y-106002632D01*
X140158349Y-106022038D01*
X140165581Y-106042250D01*
X140170797Y-106063074D01*
X140173947Y-106084309D01*
X140175000Y-106105750D01*
X140175000Y-106543250D01*
X140173947Y-106564691D01*
X140170797Y-106585926D01*
X140165581Y-106606750D01*
X140158349Y-106626962D01*
X140149170Y-106646368D01*
X140138134Y-106664781D01*
X140125346Y-106682024D01*
X140110930Y-106697930D01*
X140095024Y-106712346D01*
X140077781Y-106725134D01*
X140059368Y-106736170D01*
X140039962Y-106745349D01*
X140019750Y-106752581D01*
X139998926Y-106757797D01*
X139977691Y-106760947D01*
X139956250Y-106762000D01*
X139443750Y-106762000D01*
X139422309Y-106760947D01*
X139401074Y-106757797D01*
X139380250Y-106752581D01*
X139360038Y-106745349D01*
X139340632Y-106736170D01*
X139322219Y-106725134D01*
X139304976Y-106712346D01*
X139289070Y-106697930D01*
X139274654Y-106682024D01*
X139261866Y-106664781D01*
X139250830Y-106646368D01*
X139241651Y-106626962D01*
X139234419Y-106606750D01*
X139229203Y-106585926D01*
X139226053Y-106564691D01*
X139225000Y-106543250D01*
X139225000Y-106105750D01*
X139226053Y-106084309D01*
X139229203Y-106063074D01*
X139234419Y-106042250D01*
X139241651Y-106022038D01*
X139250830Y-106002632D01*
X139261866Y-105984219D01*
X139274654Y-105966976D01*
X139289070Y-105951070D01*
X139304976Y-105936654D01*
X139322219Y-105923866D01*
X139340632Y-105912830D01*
X139360038Y-105903651D01*
X139380250Y-105896419D01*
X139401074Y-105891203D01*
X139422309Y-105888053D01*
X139443750Y-105887000D01*
X139956250Y-105887000D01*
X139977691Y-105888053D01*
X139977691Y-105888053D01*
G37*
D11*
X139700000Y-106324500D03*
D16*
X131064000Y-107315000D03*
D17*
X194880800Y-113609100D02*
X194877300Y-113605600D01*
D18*
X132461000Y-111189000D02*
X132398000Y-111252000D01*
X132461000Y-107340500D02*
X132461000Y-111189000D01*
X132435500Y-107315000D02*
X132461000Y-107340500D01*
X131064000Y-107315000D02*
X132435500Y-107315000D01*
X136398000Y-111887000D02*
X136398000Y-111252000D01*
X135509000Y-112776000D02*
X136398000Y-111887000D01*
X130108998Y-112776000D02*
X135509000Y-112776000D01*
X129057500Y-108077000D02*
X129057500Y-111724502D01*
X129057500Y-111724502D02*
X130108998Y-112776000D01*
X138150500Y-108652000D02*
X137201500Y-109601000D01*
X138150500Y-108077000D02*
X138150500Y-108652000D01*
X134398000Y-110297406D02*
X134398000Y-111252000D01*
X135094406Y-109601000D02*
X134398000Y-110297406D01*
X137201500Y-109601000D02*
X135094406Y-109601000D01*
X127482500Y-111035581D02*
X127482500Y-108077000D01*
X124841000Y-112475000D02*
X126043081Y-112475000D01*
X126043081Y-112475000D02*
X127482500Y-111035581D01*
X127482500Y-106477000D02*
X127508000Y-106451500D01*
X127482500Y-108077000D02*
X127482500Y-106477000D01*
X141418919Y-112475000D02*
X139700000Y-110756081D01*
X142621000Y-112475000D02*
X141418919Y-112475000D01*
X139725500Y-110730581D02*
X139725500Y-108077000D01*
X139700000Y-110756081D02*
X139725500Y-110730581D01*
X139725500Y-106350000D02*
X139700000Y-106324500D01*
X139725500Y-108077000D02*
X139725500Y-106350000D01*
D19*
G36*
X143364109Y-101769005D02*
G01*
X143468101Y-101800402D01*
X143564014Y-101851399D01*
X143648194Y-101920055D01*
X143717440Y-102003758D01*
X143769105Y-102099311D01*
X143801227Y-102203078D01*
X143816000Y-102343641D01*
X143816000Y-103469388D01*
X143715180Y-103415498D01*
X143595482Y-103379188D01*
X143471000Y-103366928D01*
X142906750Y-103370000D01*
X142748000Y-103528750D01*
X142748000Y-104728000D01*
X142768000Y-104728000D01*
X142768000Y-104982000D01*
X142748000Y-104982000D01*
X142748000Y-105002000D01*
X142494000Y-105002000D01*
X142494000Y-104982000D01*
X141294750Y-104982000D01*
X141136000Y-105140750D01*
X141132928Y-105705000D01*
X141145188Y-105829482D01*
X141181498Y-105949180D01*
X141240463Y-106059494D01*
X141319815Y-106156185D01*
X141416506Y-106235537D01*
X141526820Y-106294502D01*
X141595687Y-106315393D01*
X141565866Y-106339866D01*
X141380294Y-106565986D01*
X141242401Y-106823966D01*
X141157487Y-107103889D01*
X141128815Y-107395000D01*
X141157487Y-107686111D01*
X141242401Y-107966034D01*
X141380294Y-108224014D01*
X141565866Y-108450134D01*
X141791986Y-108635706D01*
X141846791Y-108665000D01*
X141791986Y-108694294D01*
X141565866Y-108879866D01*
X141380294Y-109105986D01*
X141242401Y-109363966D01*
X141157487Y-109643889D01*
X141128815Y-109935000D01*
X141157487Y-110226111D01*
X141242401Y-110506034D01*
X141380294Y-110764014D01*
X141565866Y-110990134D01*
X141791986Y-111175706D01*
X141846791Y-111205000D01*
X141791986Y-111234294D01*
X141670728Y-111333808D01*
X140710500Y-110373581D01*
X140710500Y-108708568D01*
X140735850Y-108661142D01*
X140784608Y-108500408D01*
X140801072Y-108333250D01*
X140801072Y-107820750D01*
X140784608Y-107653592D01*
X140735850Y-107492858D01*
X140710500Y-107445432D01*
X140710500Y-106941019D01*
X140747850Y-106871142D01*
X140796608Y-106710408D01*
X140813072Y-106543250D01*
X140813072Y-106105750D01*
X140796608Y-105938592D01*
X140747850Y-105777858D01*
X140668671Y-105629725D01*
X140650900Y-105608070D01*
X140705537Y-105541494D01*
X140764502Y-105431180D01*
X140800812Y-105311482D01*
X140813072Y-105187000D01*
X140810000Y-105035250D01*
X140651250Y-104876500D01*
X139827000Y-104876500D01*
X139827000Y-104896500D01*
X139573000Y-104896500D01*
X139573000Y-104876500D01*
X138748750Y-104876500D01*
X138590000Y-105035250D01*
X138586928Y-105187000D01*
X138599188Y-105311482D01*
X138635498Y-105431180D01*
X138694463Y-105541494D01*
X138749100Y-105608070D01*
X138731329Y-105629725D01*
X138652150Y-105777858D01*
X138603392Y-105938592D01*
X138586928Y-106105750D01*
X138586928Y-106543250D01*
X138603392Y-106710408D01*
X138652150Y-106871142D01*
X138731329Y-107019275D01*
X138740501Y-107030451D01*
X138740501Y-107052326D01*
X138697142Y-107029150D01*
X138536408Y-106980392D01*
X138369250Y-106963928D01*
X137931750Y-106963928D01*
X137764592Y-106980392D01*
X137603858Y-107029150D01*
X137455725Y-107108329D01*
X137325885Y-107214885D01*
X137219329Y-107344725D01*
X137140150Y-107492858D01*
X137091392Y-107653592D01*
X137074928Y-107820750D01*
X137074928Y-108333250D01*
X137075046Y-108334453D01*
X136793500Y-108616000D01*
X135142786Y-108616000D01*
X135094406Y-108611235D01*
X135046026Y-108616000D01*
X134901312Y-108630253D01*
X134715639Y-108686576D01*
X134544522Y-108778040D01*
X134394536Y-108901130D01*
X134363695Y-108938710D01*
X133735715Y-109566691D01*
X133698130Y-109597536D01*
X133575040Y-109747522D01*
X133489465Y-109907622D01*
X133483576Y-109918640D01*
X133446000Y-110042512D01*
X133446000Y-108004726D01*
X133508850Y-107887142D01*
X133557608Y-107726408D01*
X133574072Y-107559250D01*
X133574072Y-107121750D01*
X133557608Y-106954592D01*
X133508850Y-106793858D01*
X133429671Y-106645725D01*
X133411900Y-106624070D01*
X133466537Y-106557494D01*
X133525502Y-106447180D01*
X133561812Y-106327482D01*
X133574072Y-106203000D01*
X133571000Y-106051250D01*
X133412250Y-105892500D01*
X132588000Y-105892500D01*
X132588000Y-105912500D01*
X132334000Y-105912500D01*
X132334000Y-105892500D01*
X131509750Y-105892500D01*
X131351000Y-106051250D01*
X131347928Y-106203000D01*
X131360188Y-106327482D01*
X131360952Y-106330000D01*
X131015620Y-106330000D01*
X130870906Y-106344253D01*
X130685233Y-106400576D01*
X130514116Y-106492040D01*
X130364130Y-106615130D01*
X130241040Y-106765116D01*
X130149576Y-106936233D01*
X130093253Y-107121906D01*
X130074235Y-107315000D01*
X130093253Y-107508094D01*
X130149576Y-107693767D01*
X130241040Y-107864884D01*
X130364130Y-108014870D01*
X130514116Y-108137960D01*
X130685233Y-108229424D01*
X130870906Y-108285747D01*
X131015620Y-108300000D01*
X131476000Y-108300000D01*
X131476001Y-110321378D01*
X131380456Y-110416923D01*
X131305441Y-110529191D01*
X131301400Y-110528205D01*
X130577605Y-111252000D01*
X130591748Y-111266143D01*
X130412143Y-111445748D01*
X130398000Y-111431605D01*
X130383858Y-111445748D01*
X130204253Y-111266143D01*
X130218395Y-111252000D01*
X130204253Y-111237858D01*
X130383858Y-111058253D01*
X130398000Y-111072395D01*
X131121795Y-110348600D01*
X131065370Y-110117379D01*
X130831192Y-110008983D01*
X130580367Y-109948355D01*
X130322535Y-109937826D01*
X130067602Y-109977800D01*
X130042500Y-109987017D01*
X130042500Y-108708568D01*
X130067850Y-108661142D01*
X130116608Y-108500408D01*
X130133072Y-108333250D01*
X130133072Y-107820750D01*
X130116608Y-107653592D01*
X130067850Y-107492858D01*
X129988671Y-107344725D01*
X129882115Y-107214885D01*
X129752275Y-107108329D01*
X129604142Y-107029150D01*
X129443408Y-106980392D01*
X129276250Y-106963928D01*
X128838750Y-106963928D01*
X128671592Y-106980392D01*
X128544775Y-107018861D01*
X128555850Y-106998142D01*
X128604608Y-106837408D01*
X128621072Y-106670250D01*
X128621072Y-106232750D01*
X128604608Y-106065592D01*
X128555850Y-105904858D01*
X128476671Y-105756725D01*
X128458900Y-105735070D01*
X128513537Y-105668494D01*
X128572502Y-105558180D01*
X128608812Y-105438482D01*
X128619693Y-105328000D01*
X131347928Y-105328000D01*
X131351000Y-105479750D01*
X131509750Y-105638500D01*
X132334000Y-105638500D01*
X132334000Y-104851750D01*
X132588000Y-104851750D01*
X132588000Y-105638500D01*
X133412250Y-105638500D01*
X133571000Y-105479750D01*
X133574072Y-105328000D01*
X133561812Y-105203518D01*
X133525502Y-105083820D01*
X133466537Y-104973506D01*
X133387185Y-104876815D01*
X133290494Y-104797463D01*
X133180180Y-104738498D01*
X133060482Y-104702188D01*
X132936000Y-104689928D01*
X132746750Y-104693000D01*
X132588000Y-104851750D01*
X132334000Y-104851750D01*
X132175250Y-104693000D01*
X131986000Y-104689928D01*
X131861518Y-104702188D01*
X131741820Y-104738498D01*
X131631506Y-104797463D01*
X131534815Y-104876815D01*
X131455463Y-104973506D01*
X131396498Y-105083820D01*
X131360188Y-105203518D01*
X131347928Y-105328000D01*
X128619693Y-105328000D01*
X128621072Y-105314000D01*
X128618000Y-105162250D01*
X128459250Y-105003500D01*
X127635000Y-105003500D01*
X127635000Y-105023500D01*
X127381000Y-105023500D01*
X127381000Y-105003500D01*
X126556750Y-105003500D01*
X126398000Y-105162250D01*
X126394928Y-105314000D01*
X126407188Y-105438482D01*
X126443498Y-105558180D01*
X126502463Y-105668494D01*
X126557100Y-105735070D01*
X126539329Y-105756725D01*
X126460150Y-105904858D01*
X126411392Y-106065592D01*
X126394928Y-106232750D01*
X126394928Y-106670250D01*
X126411392Y-106837408D01*
X126460150Y-106998142D01*
X126497501Y-107068020D01*
X126497500Y-107445431D01*
X126472150Y-107492858D01*
X126423392Y-107653592D01*
X126406928Y-107820750D01*
X126406928Y-108333250D01*
X126423392Y-108500408D01*
X126472150Y-108661142D01*
X126497501Y-108708570D01*
X126497500Y-110627580D01*
X125791272Y-111333808D01*
X125670014Y-111234294D01*
X125615209Y-111205000D01*
X125670014Y-111175706D01*
X125896134Y-110990134D01*
X126081706Y-110764014D01*
X126219599Y-110506034D01*
X126304513Y-110226111D01*
X126333185Y-109935000D01*
X126304513Y-109643889D01*
X126219599Y-109363966D01*
X126081706Y-109105986D01*
X125896134Y-108879866D01*
X125670014Y-108694294D01*
X125615209Y-108665000D01*
X125670014Y-108635706D01*
X125896134Y-108450134D01*
X126081706Y-108224014D01*
X126219599Y-107966034D01*
X126304513Y-107686111D01*
X126333185Y-107395000D01*
X126304513Y-107103889D01*
X126219599Y-106823966D01*
X126081706Y-106565986D01*
X125896134Y-106339866D01*
X125866313Y-106315393D01*
X125935180Y-106294502D01*
X126045494Y-106235537D01*
X126142185Y-106156185D01*
X126221537Y-106059494D01*
X126280502Y-105949180D01*
X126316812Y-105829482D01*
X126329072Y-105705000D01*
X126329072Y-104439000D01*
X126394928Y-104439000D01*
X126398000Y-104590750D01*
X126556750Y-104749500D01*
X127381000Y-104749500D01*
X127381000Y-103962750D01*
X127635000Y-103962750D01*
X127635000Y-104749500D01*
X128459250Y-104749500D01*
X128618000Y-104590750D01*
X128621072Y-104439000D01*
X128608812Y-104314518D01*
X128608049Y-104312000D01*
X138586928Y-104312000D01*
X138590000Y-104463750D01*
X138748750Y-104622500D01*
X139573000Y-104622500D01*
X139573000Y-103835750D01*
X139827000Y-103835750D01*
X139827000Y-104622500D01*
X140651250Y-104622500D01*
X140810000Y-104463750D01*
X140813072Y-104312000D01*
X140800812Y-104187518D01*
X140764502Y-104067820D01*
X140730924Y-104005000D01*
X141132928Y-104005000D01*
X141136000Y-104569250D01*
X141294750Y-104728000D01*
X142494000Y-104728000D01*
X142494000Y-103528750D01*
X142335250Y-103370000D01*
X141771000Y-103366928D01*
X141646518Y-103379188D01*
X141526820Y-103415498D01*
X141416506Y-103474463D01*
X141319815Y-103553815D01*
X141240463Y-103650506D01*
X141181498Y-103760820D01*
X141145188Y-103880518D01*
X141132928Y-104005000D01*
X140730924Y-104005000D01*
X140705537Y-103957506D01*
X140626185Y-103860815D01*
X140529494Y-103781463D01*
X140419180Y-103722498D01*
X140299482Y-103686188D01*
X140175000Y-103673928D01*
X139985750Y-103677000D01*
X139827000Y-103835750D01*
X139573000Y-103835750D01*
X139414250Y-103677000D01*
X139225000Y-103673928D01*
X139100518Y-103686188D01*
X138980820Y-103722498D01*
X138870506Y-103781463D01*
X138773815Y-103860815D01*
X138694463Y-103957506D01*
X138635498Y-104067820D01*
X138599188Y-104187518D01*
X138586928Y-104312000D01*
X128608049Y-104312000D01*
X128572502Y-104194820D01*
X128513537Y-104084506D01*
X128434185Y-103987815D01*
X128337494Y-103908463D01*
X128227180Y-103849498D01*
X128107482Y-103813188D01*
X127983000Y-103800928D01*
X127793750Y-103804000D01*
X127635000Y-103962750D01*
X127381000Y-103962750D01*
X127222250Y-103804000D01*
X127033000Y-103800928D01*
X126908518Y-103813188D01*
X126788820Y-103849498D01*
X126678506Y-103908463D01*
X126581815Y-103987815D01*
X126502463Y-104084506D01*
X126443498Y-104194820D01*
X126407188Y-104314518D01*
X126394928Y-104439000D01*
X126329072Y-104439000D01*
X126329072Y-104005000D01*
X126316812Y-103880518D01*
X126280502Y-103760820D01*
X126221537Y-103650506D01*
X126142185Y-103553815D01*
X126045494Y-103474463D01*
X125935180Y-103415498D01*
X125815482Y-103379188D01*
X125691000Y-103366928D01*
X123991000Y-103366928D01*
X123866518Y-103379188D01*
X123746820Y-103415498D01*
X123646000Y-103469388D01*
X123646000Y-102349720D01*
X123660005Y-102206891D01*
X123691402Y-102102899D01*
X123742399Y-102006986D01*
X123811055Y-101922806D01*
X123894758Y-101853560D01*
X123990311Y-101801895D01*
X124094078Y-101769773D01*
X124234641Y-101755000D01*
X143221280Y-101755000D01*
X143364109Y-101769005D01*
X143364109Y-101769005D01*
G37*
X143364109Y-101769005D02*
X143468101Y-101800402D01*
X143564014Y-101851399D01*
X143648194Y-101920055D01*
X143717440Y-102003758D01*
X143769105Y-102099311D01*
X143801227Y-102203078D01*
X143816000Y-102343641D01*
X143816000Y-103469388D01*
X143715180Y-103415498D01*
X143595482Y-103379188D01*
X143471000Y-103366928D01*
X142906750Y-103370000D01*
X142748000Y-103528750D01*
X142748000Y-104728000D01*
X142768000Y-104728000D01*
X142768000Y-104982000D01*
X142748000Y-104982000D01*
X142748000Y-105002000D01*
X142494000Y-105002000D01*
X142494000Y-104982000D01*
X141294750Y-104982000D01*
X141136000Y-105140750D01*
X141132928Y-105705000D01*
X141145188Y-105829482D01*
X141181498Y-105949180D01*
X141240463Y-106059494D01*
X141319815Y-106156185D01*
X141416506Y-106235537D01*
X141526820Y-106294502D01*
X141595687Y-106315393D01*
X141565866Y-106339866D01*
X141380294Y-106565986D01*
X141242401Y-106823966D01*
X141157487Y-107103889D01*
X141128815Y-107395000D01*
X141157487Y-107686111D01*
X141242401Y-107966034D01*
X141380294Y-108224014D01*
X141565866Y-108450134D01*
X141791986Y-108635706D01*
X141846791Y-108665000D01*
X141791986Y-108694294D01*
X141565866Y-108879866D01*
X141380294Y-109105986D01*
X141242401Y-109363966D01*
X141157487Y-109643889D01*
X141128815Y-109935000D01*
X141157487Y-110226111D01*
X141242401Y-110506034D01*
X141380294Y-110764014D01*
X141565866Y-110990134D01*
X141791986Y-111175706D01*
X141846791Y-111205000D01*
X141791986Y-111234294D01*
X141670728Y-111333808D01*
X140710500Y-110373581D01*
X140710500Y-108708568D01*
X140735850Y-108661142D01*
X140784608Y-108500408D01*
X140801072Y-108333250D01*
X140801072Y-107820750D01*
X140784608Y-107653592D01*
X140735850Y-107492858D01*
X140710500Y-107445432D01*
X140710500Y-106941019D01*
X140747850Y-106871142D01*
X140796608Y-106710408D01*
X140813072Y-106543250D01*
X140813072Y-106105750D01*
X140796608Y-105938592D01*
X140747850Y-105777858D01*
X140668671Y-105629725D01*
X140650900Y-105608070D01*
X140705537Y-105541494D01*
X140764502Y-105431180D01*
X140800812Y-105311482D01*
X140813072Y-105187000D01*
X140810000Y-105035250D01*
X140651250Y-104876500D01*
X139827000Y-104876500D01*
X139827000Y-104896500D01*
X139573000Y-104896500D01*
X139573000Y-104876500D01*
X138748750Y-104876500D01*
X138590000Y-105035250D01*
X138586928Y-105187000D01*
X138599188Y-105311482D01*
X138635498Y-105431180D01*
X138694463Y-105541494D01*
X138749100Y-105608070D01*
X138731329Y-105629725D01*
X138652150Y-105777858D01*
X138603392Y-105938592D01*
X138586928Y-106105750D01*
X138586928Y-106543250D01*
X138603392Y-106710408D01*
X138652150Y-106871142D01*
X138731329Y-107019275D01*
X138740501Y-107030451D01*
X138740501Y-107052326D01*
X138697142Y-107029150D01*
X138536408Y-106980392D01*
X138369250Y-106963928D01*
X137931750Y-106963928D01*
X137764592Y-106980392D01*
X137603858Y-107029150D01*
X137455725Y-107108329D01*
X137325885Y-107214885D01*
X137219329Y-107344725D01*
X137140150Y-107492858D01*
X137091392Y-107653592D01*
X137074928Y-107820750D01*
X137074928Y-108333250D01*
X137075046Y-108334453D01*
X136793500Y-108616000D01*
X135142786Y-108616000D01*
X135094406Y-108611235D01*
X135046026Y-108616000D01*
X134901312Y-108630253D01*
X134715639Y-108686576D01*
X134544522Y-108778040D01*
X134394536Y-108901130D01*
X134363695Y-108938710D01*
X133735715Y-109566691D01*
X133698130Y-109597536D01*
X133575040Y-109747522D01*
X133489465Y-109907622D01*
X133483576Y-109918640D01*
X133446000Y-110042512D01*
X133446000Y-108004726D01*
X133508850Y-107887142D01*
X133557608Y-107726408D01*
X133574072Y-107559250D01*
X133574072Y-107121750D01*
X133557608Y-106954592D01*
X133508850Y-106793858D01*
X133429671Y-106645725D01*
X133411900Y-106624070D01*
X133466537Y-106557494D01*
X133525502Y-106447180D01*
X133561812Y-106327482D01*
X133574072Y-106203000D01*
X133571000Y-106051250D01*
X133412250Y-105892500D01*
X132588000Y-105892500D01*
X132588000Y-105912500D01*
X132334000Y-105912500D01*
X132334000Y-105892500D01*
X131509750Y-105892500D01*
X131351000Y-106051250D01*
X131347928Y-106203000D01*
X131360188Y-106327482D01*
X131360952Y-106330000D01*
X131015620Y-106330000D01*
X130870906Y-106344253D01*
X130685233Y-106400576D01*
X130514116Y-106492040D01*
X130364130Y-106615130D01*
X130241040Y-106765116D01*
X130149576Y-106936233D01*
X130093253Y-107121906D01*
X130074235Y-107315000D01*
X130093253Y-107508094D01*
X130149576Y-107693767D01*
X130241040Y-107864884D01*
X130364130Y-108014870D01*
X130514116Y-108137960D01*
X130685233Y-108229424D01*
X130870906Y-108285747D01*
X131015620Y-108300000D01*
X131476000Y-108300000D01*
X131476001Y-110321378D01*
X131380456Y-110416923D01*
X131305441Y-110529191D01*
X131301400Y-110528205D01*
X130577605Y-111252000D01*
X130591748Y-111266143D01*
X130412143Y-111445748D01*
X130398000Y-111431605D01*
X130383858Y-111445748D01*
X130204253Y-111266143D01*
X130218395Y-111252000D01*
X130204253Y-111237858D01*
X130383858Y-111058253D01*
X130398000Y-111072395D01*
X131121795Y-110348600D01*
X131065370Y-110117379D01*
X130831192Y-110008983D01*
X130580367Y-109948355D01*
X130322535Y-109937826D01*
X130067602Y-109977800D01*
X130042500Y-109987017D01*
X130042500Y-108708568D01*
X130067850Y-108661142D01*
X130116608Y-108500408D01*
X130133072Y-108333250D01*
X130133072Y-107820750D01*
X130116608Y-107653592D01*
X130067850Y-107492858D01*
X129988671Y-107344725D01*
X129882115Y-107214885D01*
X129752275Y-107108329D01*
X129604142Y-107029150D01*
X129443408Y-106980392D01*
X129276250Y-106963928D01*
X128838750Y-106963928D01*
X128671592Y-106980392D01*
X128544775Y-107018861D01*
X128555850Y-106998142D01*
X128604608Y-106837408D01*
X128621072Y-106670250D01*
X128621072Y-106232750D01*
X128604608Y-106065592D01*
X128555850Y-105904858D01*
X128476671Y-105756725D01*
X128458900Y-105735070D01*
X128513537Y-105668494D01*
X128572502Y-105558180D01*
X128608812Y-105438482D01*
X128619693Y-105328000D01*
X131347928Y-105328000D01*
X131351000Y-105479750D01*
X131509750Y-105638500D01*
X132334000Y-105638500D01*
X132334000Y-104851750D01*
X132588000Y-104851750D01*
X132588000Y-105638500D01*
X133412250Y-105638500D01*
X133571000Y-105479750D01*
X133574072Y-105328000D01*
X133561812Y-105203518D01*
X133525502Y-105083820D01*
X133466537Y-104973506D01*
X133387185Y-104876815D01*
X133290494Y-104797463D01*
X133180180Y-104738498D01*
X133060482Y-104702188D01*
X132936000Y-104689928D01*
X132746750Y-104693000D01*
X132588000Y-104851750D01*
X132334000Y-104851750D01*
X132175250Y-104693000D01*
X131986000Y-104689928D01*
X131861518Y-104702188D01*
X131741820Y-104738498D01*
X131631506Y-104797463D01*
X131534815Y-104876815D01*
X131455463Y-104973506D01*
X131396498Y-105083820D01*
X131360188Y-105203518D01*
X131347928Y-105328000D01*
X128619693Y-105328000D01*
X128621072Y-105314000D01*
X128618000Y-105162250D01*
X128459250Y-105003500D01*
X127635000Y-105003500D01*
X127635000Y-105023500D01*
X127381000Y-105023500D01*
X127381000Y-105003500D01*
X126556750Y-105003500D01*
X126398000Y-105162250D01*
X126394928Y-105314000D01*
X126407188Y-105438482D01*
X126443498Y-105558180D01*
X126502463Y-105668494D01*
X126557100Y-105735070D01*
X126539329Y-105756725D01*
X126460150Y-105904858D01*
X126411392Y-106065592D01*
X126394928Y-106232750D01*
X126394928Y-106670250D01*
X126411392Y-106837408D01*
X126460150Y-106998142D01*
X126497501Y-107068020D01*
X126497500Y-107445431D01*
X126472150Y-107492858D01*
X126423392Y-107653592D01*
X126406928Y-107820750D01*
X126406928Y-108333250D01*
X126423392Y-108500408D01*
X126472150Y-108661142D01*
X126497501Y-108708570D01*
X126497500Y-110627580D01*
X125791272Y-111333808D01*
X125670014Y-111234294D01*
X125615209Y-111205000D01*
X125670014Y-111175706D01*
X125896134Y-110990134D01*
X126081706Y-110764014D01*
X126219599Y-110506034D01*
X126304513Y-110226111D01*
X126333185Y-109935000D01*
X126304513Y-109643889D01*
X126219599Y-109363966D01*
X126081706Y-109105986D01*
X125896134Y-108879866D01*
X125670014Y-108694294D01*
X125615209Y-108665000D01*
X125670014Y-108635706D01*
X125896134Y-108450134D01*
X126081706Y-108224014D01*
X126219599Y-107966034D01*
X126304513Y-107686111D01*
X126333185Y-107395000D01*
X126304513Y-107103889D01*
X126219599Y-106823966D01*
X126081706Y-106565986D01*
X125896134Y-106339866D01*
X125866313Y-106315393D01*
X125935180Y-106294502D01*
X126045494Y-106235537D01*
X126142185Y-106156185D01*
X126221537Y-106059494D01*
X126280502Y-105949180D01*
X126316812Y-105829482D01*
X126329072Y-105705000D01*
X126329072Y-104439000D01*
X126394928Y-104439000D01*
X126398000Y-104590750D01*
X126556750Y-104749500D01*
X127381000Y-104749500D01*
X127381000Y-103962750D01*
X127635000Y-103962750D01*
X127635000Y-104749500D01*
X128459250Y-104749500D01*
X128618000Y-104590750D01*
X128621072Y-104439000D01*
X128608812Y-104314518D01*
X128608049Y-104312000D01*
X138586928Y-104312000D01*
X138590000Y-104463750D01*
X138748750Y-104622500D01*
X139573000Y-104622500D01*
X139573000Y-103835750D01*
X139827000Y-103835750D01*
X139827000Y-104622500D01*
X140651250Y-104622500D01*
X140810000Y-104463750D01*
X140813072Y-104312000D01*
X140800812Y-104187518D01*
X140764502Y-104067820D01*
X140730924Y-104005000D01*
X141132928Y-104005000D01*
X141136000Y-104569250D01*
X141294750Y-104728000D01*
X142494000Y-104728000D01*
X142494000Y-103528750D01*
X142335250Y-103370000D01*
X141771000Y-103366928D01*
X141646518Y-103379188D01*
X141526820Y-103415498D01*
X141416506Y-103474463D01*
X141319815Y-103553815D01*
X141240463Y-103650506D01*
X141181498Y-103760820D01*
X141145188Y-103880518D01*
X141132928Y-104005000D01*
X140730924Y-104005000D01*
X140705537Y-103957506D01*
X140626185Y-103860815D01*
X140529494Y-103781463D01*
X140419180Y-103722498D01*
X140299482Y-103686188D01*
X140175000Y-103673928D01*
X139985750Y-103677000D01*
X139827000Y-103835750D01*
X139573000Y-103835750D01*
X139414250Y-103677000D01*
X139225000Y-103673928D01*
X139100518Y-103686188D01*
X138980820Y-103722498D01*
X138870506Y-103781463D01*
X138773815Y-103860815D01*
X138694463Y-103957506D01*
X138635498Y-104067820D01*
X138599188Y-104187518D01*
X138586928Y-104312000D01*
X128608049Y-104312000D01*
X128572502Y-104194820D01*
X128513537Y-104084506D01*
X128434185Y-103987815D01*
X128337494Y-103908463D01*
X128227180Y-103849498D01*
X128107482Y-103813188D01*
X127983000Y-103800928D01*
X127793750Y-103804000D01*
X127635000Y-103962750D01*
X127381000Y-103962750D01*
X127222250Y-103804000D01*
X127033000Y-103800928D01*
X126908518Y-103813188D01*
X126788820Y-103849498D01*
X126678506Y-103908463D01*
X126581815Y-103987815D01*
X126502463Y-104084506D01*
X126443498Y-104194820D01*
X126407188Y-104314518D01*
X126394928Y-104439000D01*
X126329072Y-104439000D01*
X126329072Y-104005000D01*
X126316812Y-103880518D01*
X126280502Y-103760820D01*
X126221537Y-103650506D01*
X126142185Y-103553815D01*
X126045494Y-103474463D01*
X125935180Y-103415498D01*
X125815482Y-103379188D01*
X125691000Y-103366928D01*
X123991000Y-103366928D01*
X123866518Y-103379188D01*
X123746820Y-103415498D01*
X123646000Y-103469388D01*
X123646000Y-102349720D01*
X123660005Y-102206891D01*
X123691402Y-102102899D01*
X123742399Y-102006986D01*
X123811055Y-101922806D01*
X123894758Y-101853560D01*
X123990311Y-101801895D01*
X124094078Y-101769773D01*
X124234641Y-101755000D01*
X143221280Y-101755000D01*
X143364109Y-101769005D01*
M02*
