G04 #@! TF.GenerationSoftware,KiCad,Pcbnew,(5.1.4)-1*
G04 #@! TF.CreationDate,2020-05-04T16:36:29+09:00*
G04 #@! TF.ProjectId,SPRESENSE_GROVE_ANA,53505245-5345-44e5-9345-5f47524f5645,v0.2*
G04 #@! TF.SameCoordinates,Original*
G04 #@! TF.FileFunction,Legend,Top*
G04 #@! TF.FilePolarity,Positive*
%FSLAX46Y46*%
G04 Gerber Fmt 4.6, Leading zero omitted, Abs format (unit mm)*
G04 Created by KiCad (PCBNEW (5.1.4)-1) date 2020-05-04 16:36:29*
%MOMM*%
%LPD*%
G04 APERTURE LIST*
%ADD10C,0.100000*%
%ADD11C,0.120000*%
%ADD12C,0.002540*%
%ADD13C,0.150000*%
%ADD14C,1.275000*%
%ADD15R,1.750000X1.750000*%
%ADD16C,1.750000*%
%ADD17R,2.100000X2.100000*%
%ADD18O,2.100000X2.100000*%
G04 APERTURE END LIST*
D10*
X140287428Y-113638000D02*
X140573142Y-113638000D01*
X140230285Y-113809428D02*
X140430285Y-113209428D01*
X140630285Y-113809428D01*
X141116000Y-113209428D02*
X140830285Y-113209428D01*
X140801714Y-113495142D01*
X140830285Y-113466571D01*
X140887428Y-113438000D01*
X141030285Y-113438000D01*
X141087428Y-113466571D01*
X141116000Y-113495142D01*
X141144571Y-113552285D01*
X141144571Y-113695142D01*
X141116000Y-113752285D01*
X141087428Y-113780857D01*
X141030285Y-113809428D01*
X140887428Y-113809428D01*
X140830285Y-113780857D01*
X140801714Y-113752285D01*
X135969428Y-108812000D02*
X136255142Y-108812000D01*
X135912285Y-108983428D02*
X136112285Y-108383428D01*
X136312285Y-108983428D01*
X136769428Y-108583428D02*
X136769428Y-108983428D01*
X136626571Y-108354857D02*
X136483714Y-108783428D01*
X136855142Y-108783428D01*
X134191428Y-108812000D02*
X134477142Y-108812000D01*
X134134285Y-108983428D02*
X134334285Y-108383428D01*
X134534285Y-108983428D01*
X135020000Y-108383428D02*
X134734285Y-108383428D01*
X134705714Y-108669142D01*
X134734285Y-108640571D01*
X134791428Y-108612000D01*
X134934285Y-108612000D01*
X134991428Y-108640571D01*
X135020000Y-108669142D01*
X135048571Y-108726285D01*
X135048571Y-108869142D01*
X135020000Y-108926285D01*
X134991428Y-108954857D01*
X134934285Y-108983428D01*
X134791428Y-108983428D01*
X134734285Y-108954857D01*
X134705714Y-108926285D01*
X132000714Y-108383428D02*
X132372142Y-108383428D01*
X132172142Y-108612000D01*
X132257857Y-108612000D01*
X132315000Y-108640571D01*
X132343571Y-108669142D01*
X132372142Y-108726285D01*
X132372142Y-108869142D01*
X132343571Y-108926285D01*
X132315000Y-108954857D01*
X132257857Y-108983428D01*
X132086428Y-108983428D01*
X132029285Y-108954857D01*
X132000714Y-108926285D01*
X132572142Y-108583428D02*
X132715000Y-108983428D01*
X132857857Y-108583428D01*
X133029285Y-108383428D02*
X133400714Y-108383428D01*
X133200714Y-108612000D01*
X133286428Y-108612000D01*
X133343571Y-108640571D01*
X133372142Y-108669142D01*
X133400714Y-108726285D01*
X133400714Y-108869142D01*
X133372142Y-108926285D01*
X133343571Y-108954857D01*
X133286428Y-108983428D01*
X133115000Y-108983428D01*
X133057857Y-108954857D01*
X133029285Y-108926285D01*
X130225857Y-108412000D02*
X130168714Y-108383428D01*
X130083000Y-108383428D01*
X129997285Y-108412000D01*
X129940142Y-108469142D01*
X129911571Y-108526285D01*
X129883000Y-108640571D01*
X129883000Y-108726285D01*
X129911571Y-108840571D01*
X129940142Y-108897714D01*
X129997285Y-108954857D01*
X130083000Y-108983428D01*
X130140142Y-108983428D01*
X130225857Y-108954857D01*
X130254428Y-108926285D01*
X130254428Y-108726285D01*
X130140142Y-108726285D01*
X130511571Y-108983428D02*
X130511571Y-108383428D01*
X130854428Y-108983428D01*
X130854428Y-108383428D01*
X131140142Y-108983428D02*
X131140142Y-108383428D01*
X131283000Y-108383428D01*
X131368714Y-108412000D01*
X131425857Y-108469142D01*
X131454428Y-108526285D01*
X131483000Y-108640571D01*
X131483000Y-108726285D01*
X131454428Y-108840571D01*
X131425857Y-108897714D01*
X131368714Y-108954857D01*
X131283000Y-108983428D01*
X131140142Y-108983428D01*
X139877857Y-103078000D02*
X139820714Y-103049428D01*
X139735000Y-103049428D01*
X139649285Y-103078000D01*
X139592142Y-103135142D01*
X139563571Y-103192285D01*
X139535000Y-103306571D01*
X139535000Y-103392285D01*
X139563571Y-103506571D01*
X139592142Y-103563714D01*
X139649285Y-103620857D01*
X139735000Y-103649428D01*
X139792142Y-103649428D01*
X139877857Y-103620857D01*
X139906428Y-103592285D01*
X139906428Y-103392285D01*
X139792142Y-103392285D01*
X140163571Y-103649428D02*
X140163571Y-103049428D01*
X140506428Y-103649428D01*
X140506428Y-103049428D01*
X140792142Y-103649428D02*
X140792142Y-103049428D01*
X140935000Y-103049428D01*
X141020714Y-103078000D01*
X141077857Y-103135142D01*
X141106428Y-103192285D01*
X141135000Y-103306571D01*
X141135000Y-103392285D01*
X141106428Y-103506571D01*
X141077857Y-103563714D01*
X141020714Y-103620857D01*
X140935000Y-103649428D01*
X140792142Y-103649428D01*
X126444428Y-113765000D02*
X126730142Y-113765000D01*
X126387285Y-113936428D02*
X126587285Y-113336428D01*
X126787285Y-113936428D01*
X127244428Y-113536428D02*
X127244428Y-113936428D01*
X127101571Y-113307857D02*
X126958714Y-113736428D01*
X127330142Y-113736428D01*
X125844428Y-103674857D02*
X126301571Y-103674857D01*
X126073000Y-103903428D02*
X126073000Y-103446285D01*
X126530142Y-103303428D02*
X126901571Y-103303428D01*
X126701571Y-103532000D01*
X126787285Y-103532000D01*
X126844428Y-103560571D01*
X126873000Y-103589142D01*
X126901571Y-103646285D01*
X126901571Y-103789142D01*
X126873000Y-103846285D01*
X126844428Y-103874857D01*
X126787285Y-103903428D01*
X126615857Y-103903428D01*
X126558714Y-103874857D01*
X126530142Y-103846285D01*
X127101571Y-103503428D02*
X127244428Y-103903428D01*
X127387285Y-103503428D01*
X127558714Y-103303428D02*
X127930142Y-103303428D01*
X127730142Y-103532000D01*
X127815857Y-103532000D01*
X127873000Y-103560571D01*
X127901571Y-103589142D01*
X127930142Y-103646285D01*
X127930142Y-103789142D01*
X127901571Y-103846285D01*
X127873000Y-103874857D01*
X127815857Y-103903428D01*
X127644428Y-103903428D01*
X127587285Y-103874857D01*
X127558714Y-103846285D01*
X139319142Y-101809571D02*
X139509619Y-102342904D01*
X139700095Y-101809571D01*
X140423904Y-102342904D02*
X139966761Y-102342904D01*
X140195333Y-102342904D02*
X140195333Y-101542904D01*
X140119142Y-101657190D01*
X140042952Y-101733380D01*
X139966761Y-101771476D01*
X140766761Y-102266714D02*
X140804857Y-102304809D01*
X140766761Y-102342904D01*
X140728666Y-102304809D01*
X140766761Y-102266714D01*
X140766761Y-102342904D01*
X141300095Y-101542904D02*
X141376285Y-101542904D01*
X141452476Y-101581000D01*
X141490571Y-101619095D01*
X141528666Y-101695285D01*
X141566761Y-101847666D01*
X141566761Y-102038142D01*
X141528666Y-102190523D01*
X141490571Y-102266714D01*
X141452476Y-102304809D01*
X141376285Y-102342904D01*
X141300095Y-102342904D01*
X141223904Y-102304809D01*
X141185809Y-102266714D01*
X141147714Y-102190523D01*
X141109619Y-102038142D01*
X141109619Y-101847666D01*
X141147714Y-101695285D01*
X141185809Y-101619095D01*
X141223904Y-101581000D01*
X141300095Y-101542904D01*
X123756095Y-102304809D02*
X123870380Y-102342904D01*
X124060857Y-102342904D01*
X124137047Y-102304809D01*
X124175142Y-102266714D01*
X124213238Y-102190523D01*
X124213238Y-102114333D01*
X124175142Y-102038142D01*
X124137047Y-102000047D01*
X124060857Y-101961952D01*
X123908476Y-101923857D01*
X123832285Y-101885761D01*
X123794190Y-101847666D01*
X123756095Y-101771476D01*
X123756095Y-101695285D01*
X123794190Y-101619095D01*
X123832285Y-101581000D01*
X123908476Y-101542904D01*
X124098952Y-101542904D01*
X124213238Y-101581000D01*
X124556095Y-102342904D02*
X124556095Y-101542904D01*
X124860857Y-101542904D01*
X124937047Y-101581000D01*
X124975142Y-101619095D01*
X125013238Y-101695285D01*
X125013238Y-101809571D01*
X124975142Y-101885761D01*
X124937047Y-101923857D01*
X124860857Y-101961952D01*
X124556095Y-101961952D01*
X125813238Y-102342904D02*
X125546571Y-101961952D01*
X125356095Y-102342904D02*
X125356095Y-101542904D01*
X125660857Y-101542904D01*
X125737047Y-101581000D01*
X125775142Y-101619095D01*
X125813238Y-101695285D01*
X125813238Y-101809571D01*
X125775142Y-101885761D01*
X125737047Y-101923857D01*
X125660857Y-101961952D01*
X125356095Y-101961952D01*
X126156095Y-101923857D02*
X126422761Y-101923857D01*
X126537047Y-102342904D02*
X126156095Y-102342904D01*
X126156095Y-101542904D01*
X126537047Y-101542904D01*
X126841809Y-102304809D02*
X126956095Y-102342904D01*
X127146571Y-102342904D01*
X127222761Y-102304809D01*
X127260857Y-102266714D01*
X127298952Y-102190523D01*
X127298952Y-102114333D01*
X127260857Y-102038142D01*
X127222761Y-102000047D01*
X127146571Y-101961952D01*
X126994190Y-101923857D01*
X126918000Y-101885761D01*
X126879904Y-101847666D01*
X126841809Y-101771476D01*
X126841809Y-101695285D01*
X126879904Y-101619095D01*
X126918000Y-101581000D01*
X126994190Y-101542904D01*
X127184666Y-101542904D01*
X127298952Y-101581000D01*
X127641809Y-101923857D02*
X127908476Y-101923857D01*
X128022761Y-102342904D02*
X127641809Y-102342904D01*
X127641809Y-101542904D01*
X128022761Y-101542904D01*
X128365619Y-102342904D02*
X128365619Y-101542904D01*
X128822761Y-102342904D01*
X128822761Y-101542904D01*
X129165619Y-102304809D02*
X129279904Y-102342904D01*
X129470380Y-102342904D01*
X129546571Y-102304809D01*
X129584666Y-102266714D01*
X129622761Y-102190523D01*
X129622761Y-102114333D01*
X129584666Y-102038142D01*
X129546571Y-102000047D01*
X129470380Y-101961952D01*
X129318000Y-101923857D01*
X129241809Y-101885761D01*
X129203714Y-101847666D01*
X129165619Y-101771476D01*
X129165619Y-101695285D01*
X129203714Y-101619095D01*
X129241809Y-101581000D01*
X129318000Y-101542904D01*
X129508476Y-101542904D01*
X129622761Y-101581000D01*
X129965619Y-101923857D02*
X130232285Y-101923857D01*
X130346571Y-102342904D02*
X129965619Y-102342904D01*
X129965619Y-101542904D01*
X130346571Y-101542904D01*
X131718000Y-101581000D02*
X131641809Y-101542904D01*
X131527523Y-101542904D01*
X131413238Y-101581000D01*
X131337047Y-101657190D01*
X131298952Y-101733380D01*
X131260857Y-101885761D01*
X131260857Y-102000047D01*
X131298952Y-102152428D01*
X131337047Y-102228619D01*
X131413238Y-102304809D01*
X131527523Y-102342904D01*
X131603714Y-102342904D01*
X131718000Y-102304809D01*
X131756095Y-102266714D01*
X131756095Y-102000047D01*
X131603714Y-102000047D01*
X132098952Y-102342904D02*
X132098952Y-101809571D01*
X132098952Y-101961952D02*
X132137047Y-101885761D01*
X132175142Y-101847666D01*
X132251333Y-101809571D01*
X132327523Y-101809571D01*
X132708476Y-102342904D02*
X132632285Y-102304809D01*
X132594190Y-102266714D01*
X132556095Y-102190523D01*
X132556095Y-101961952D01*
X132594190Y-101885761D01*
X132632285Y-101847666D01*
X132708476Y-101809571D01*
X132822761Y-101809571D01*
X132898952Y-101847666D01*
X132937047Y-101885761D01*
X132975142Y-101961952D01*
X132975142Y-102190523D01*
X132937047Y-102266714D01*
X132898952Y-102304809D01*
X132822761Y-102342904D01*
X132708476Y-102342904D01*
X133241809Y-101809571D02*
X133432285Y-102342904D01*
X133622761Y-101809571D01*
X134232285Y-102304809D02*
X134156095Y-102342904D01*
X134003714Y-102342904D01*
X133927523Y-102304809D01*
X133889428Y-102228619D01*
X133889428Y-101923857D01*
X133927523Y-101847666D01*
X134003714Y-101809571D01*
X134156095Y-101809571D01*
X134232285Y-101847666D01*
X134270380Y-101923857D01*
X134270380Y-102000047D01*
X133889428Y-102076238D01*
X135184666Y-102114333D02*
X135565619Y-102114333D01*
X135108476Y-102342904D02*
X135375142Y-101542904D01*
X135641809Y-102342904D01*
X135908476Y-101809571D02*
X135908476Y-102342904D01*
X135908476Y-101885761D02*
X135946571Y-101847666D01*
X136022761Y-101809571D01*
X136137047Y-101809571D01*
X136213238Y-101847666D01*
X136251333Y-101923857D01*
X136251333Y-102342904D01*
X136975142Y-102342904D02*
X136975142Y-101923857D01*
X136937047Y-101847666D01*
X136860857Y-101809571D01*
X136708476Y-101809571D01*
X136632285Y-101847666D01*
X136975142Y-102304809D02*
X136898952Y-102342904D01*
X136708476Y-102342904D01*
X136632285Y-102304809D01*
X136594190Y-102228619D01*
X136594190Y-102152428D01*
X136632285Y-102076238D01*
X136708476Y-102038142D01*
X136898952Y-102038142D01*
X136975142Y-102000047D01*
X137470380Y-102342904D02*
X137394190Y-102304809D01*
X137356095Y-102228619D01*
X137356095Y-101542904D01*
X137889428Y-102342904D02*
X137813238Y-102304809D01*
X137775142Y-102266714D01*
X137737047Y-102190523D01*
X137737047Y-101961952D01*
X137775142Y-101885761D01*
X137813238Y-101847666D01*
X137889428Y-101809571D01*
X138003714Y-101809571D01*
X138079904Y-101847666D01*
X138118000Y-101885761D01*
X138156095Y-101961952D01*
X138156095Y-102190523D01*
X138118000Y-102266714D01*
X138079904Y-102304809D01*
X138003714Y-102342904D01*
X137889428Y-102342904D01*
X138841809Y-101809571D02*
X138841809Y-102457190D01*
X138803714Y-102533380D01*
X138765619Y-102571476D01*
X138689428Y-102609571D01*
X138575142Y-102609571D01*
X138498952Y-102571476D01*
X138841809Y-102304809D02*
X138765619Y-102342904D01*
X138613238Y-102342904D01*
X138537047Y-102304809D01*
X138498952Y-102266714D01*
X138460857Y-102190523D01*
X138460857Y-101961952D01*
X138498952Y-101885761D01*
X138537047Y-101847666D01*
X138613238Y-101809571D01*
X138765619Y-101809571D01*
X138841809Y-101847666D01*
D11*
X131951000Y-106715779D02*
X131951000Y-106390221D01*
X132971000Y-106715779D02*
X132971000Y-106390221D01*
X138775221Y-108587000D02*
X139100779Y-108587000D01*
X138775221Y-107567000D02*
X139100779Y-107567000D01*
D12*
G36*
X142397480Y-103211620D02*
G01*
X142407640Y-103206540D01*
X142430500Y-103191300D01*
X142463520Y-103170980D01*
X142504160Y-103143040D01*
X142542260Y-103117640D01*
X142575280Y-103094780D01*
X142598140Y-103079540D01*
X142608300Y-103074460D01*
X142613380Y-103077000D01*
X142631160Y-103087160D01*
X142659100Y-103099860D01*
X142674340Y-103107480D01*
X142699740Y-103120180D01*
X142712440Y-103122720D01*
X142714980Y-103117640D01*
X142725140Y-103099860D01*
X142737840Y-103066840D01*
X142758160Y-103023660D01*
X142778480Y-102972860D01*
X142801340Y-102916980D01*
X142824200Y-102861100D01*
X142847060Y-102807760D01*
X142867380Y-102759500D01*
X142882620Y-102721400D01*
X142892780Y-102693460D01*
X142897860Y-102683300D01*
X142895320Y-102680760D01*
X142882620Y-102668060D01*
X142862300Y-102652820D01*
X142814040Y-102612180D01*
X142768320Y-102553760D01*
X142737840Y-102487720D01*
X142730220Y-102414060D01*
X142737840Y-102348020D01*
X142763240Y-102284520D01*
X142808960Y-102223560D01*
X142864840Y-102180380D01*
X142930880Y-102152440D01*
X143002000Y-102144820D01*
X143070580Y-102152440D01*
X143136620Y-102177840D01*
X143197580Y-102223560D01*
X143220440Y-102251500D01*
X143256000Y-102312460D01*
X143276320Y-102373420D01*
X143276320Y-102388660D01*
X143273780Y-102459780D01*
X143253460Y-102528360D01*
X143217900Y-102586780D01*
X143164560Y-102637580D01*
X143159480Y-102642660D01*
X143134080Y-102660440D01*
X143118840Y-102670600D01*
X143106140Y-102680760D01*
X143195040Y-102896660D01*
X143210280Y-102932220D01*
X143235680Y-102990640D01*
X143256000Y-103041440D01*
X143273780Y-103082080D01*
X143286480Y-103107480D01*
X143291560Y-103120180D01*
X143299180Y-103120180D01*
X143314420Y-103115100D01*
X143344900Y-103099860D01*
X143365220Y-103089700D01*
X143388080Y-103079540D01*
X143398240Y-103074460D01*
X143408400Y-103079540D01*
X143428720Y-103094780D01*
X143461740Y-103115100D01*
X143499840Y-103140500D01*
X143535400Y-103165900D01*
X143570960Y-103188760D01*
X143593820Y-103204000D01*
X143606520Y-103211620D01*
X143609060Y-103211620D01*
X143619220Y-103204000D01*
X143639540Y-103188760D01*
X143667480Y-103160820D01*
X143708120Y-103120180D01*
X143715740Y-103115100D01*
X143748760Y-103079540D01*
X143776700Y-103049060D01*
X143797020Y-103028740D01*
X143802100Y-103021120D01*
X143797020Y-103008420D01*
X143781780Y-102983020D01*
X143758920Y-102950000D01*
X143730980Y-102909360D01*
X143659860Y-102805220D01*
X143700500Y-102708700D01*
X143710660Y-102678220D01*
X143725900Y-102642660D01*
X143738600Y-102617260D01*
X143743680Y-102604560D01*
X143753840Y-102602020D01*
X143781780Y-102594400D01*
X143819880Y-102586780D01*
X143865600Y-102579160D01*
X143911320Y-102569000D01*
X143949420Y-102561380D01*
X143979900Y-102556300D01*
X143992600Y-102553760D01*
X143995140Y-102551220D01*
X143997680Y-102546140D01*
X144000220Y-102533440D01*
X144000220Y-102508040D01*
X144000220Y-102469940D01*
X144000220Y-102414060D01*
X144000220Y-102408980D01*
X144000220Y-102355640D01*
X144000220Y-102315000D01*
X143997680Y-102289600D01*
X143995140Y-102279440D01*
X143982440Y-102274360D01*
X143954500Y-102269280D01*
X143916400Y-102261660D01*
X143868140Y-102251500D01*
X143865600Y-102251500D01*
X143817340Y-102243880D01*
X143779240Y-102233720D01*
X143751300Y-102228640D01*
X143738600Y-102223560D01*
X143736060Y-102221020D01*
X143725900Y-102203240D01*
X143713200Y-102172760D01*
X143697960Y-102137200D01*
X143682720Y-102101640D01*
X143667480Y-102066080D01*
X143659860Y-102043220D01*
X143657320Y-102030520D01*
X143664940Y-102020360D01*
X143680180Y-101994960D01*
X143703040Y-101961940D01*
X143730980Y-101921300D01*
X143733520Y-101916220D01*
X143761460Y-101878120D01*
X143781780Y-101842560D01*
X143797020Y-101819700D01*
X143802100Y-101809540D01*
X143802100Y-101807000D01*
X143794480Y-101796840D01*
X143774160Y-101773980D01*
X143743680Y-101743500D01*
X143708120Y-101707940D01*
X143697960Y-101697780D01*
X143659860Y-101659680D01*
X143631920Y-101634280D01*
X143614140Y-101621580D01*
X143606520Y-101616500D01*
X143606520Y-101619040D01*
X143593820Y-101624120D01*
X143568420Y-101641900D01*
X143535400Y-101664760D01*
X143494760Y-101692700D01*
X143492220Y-101695240D01*
X143451580Y-101720640D01*
X143418560Y-101743500D01*
X143395700Y-101758740D01*
X143385540Y-101766360D01*
X143383000Y-101766360D01*
X143367760Y-101761280D01*
X143337280Y-101751120D01*
X143304260Y-101738420D01*
X143266160Y-101723180D01*
X143233140Y-101707940D01*
X143207740Y-101697780D01*
X143195040Y-101690160D01*
X143189960Y-101674920D01*
X143184880Y-101644440D01*
X143174720Y-101603800D01*
X143167100Y-101555540D01*
X143164560Y-101547920D01*
X143156940Y-101499660D01*
X143149320Y-101461560D01*
X143141700Y-101433620D01*
X143139160Y-101420920D01*
X143134080Y-101420920D01*
X143108680Y-101418380D01*
X143073120Y-101418380D01*
X143029940Y-101418380D01*
X142986760Y-101418380D01*
X142943580Y-101418380D01*
X142905480Y-101420920D01*
X142880080Y-101420920D01*
X142867380Y-101423460D01*
X142867380Y-101426000D01*
X142862300Y-101438700D01*
X142857220Y-101469180D01*
X142847060Y-101509820D01*
X142839440Y-101560620D01*
X142836900Y-101568240D01*
X142829280Y-101616500D01*
X142819120Y-101654600D01*
X142814040Y-101682540D01*
X142811500Y-101692700D01*
X142806420Y-101695240D01*
X142788640Y-101702860D01*
X142755620Y-101715560D01*
X142714980Y-101733340D01*
X142623540Y-101768900D01*
X142511780Y-101692700D01*
X142501620Y-101685080D01*
X142460980Y-101657140D01*
X142427960Y-101636820D01*
X142405100Y-101621580D01*
X142394940Y-101616500D01*
X142384780Y-101626660D01*
X142361920Y-101646980D01*
X142331440Y-101677460D01*
X142295880Y-101710480D01*
X142270480Y-101738420D01*
X142240000Y-101768900D01*
X142219680Y-101789220D01*
X142209520Y-101804460D01*
X142204440Y-101812080D01*
X142206980Y-101817160D01*
X142212060Y-101829860D01*
X142229840Y-101852720D01*
X142252700Y-101888280D01*
X142280640Y-101926380D01*
X142303500Y-101961940D01*
X142326360Y-101997500D01*
X142341600Y-102025440D01*
X142349220Y-102038140D01*
X142346680Y-102043220D01*
X142339060Y-102066080D01*
X142326360Y-102099100D01*
X142308580Y-102139740D01*
X142270480Y-102228640D01*
X142212060Y-102238800D01*
X142176500Y-102246420D01*
X142125700Y-102254040D01*
X142079980Y-102264200D01*
X142006320Y-102279440D01*
X142003780Y-102546140D01*
X142013940Y-102551220D01*
X142026640Y-102556300D01*
X142052040Y-102561380D01*
X142092680Y-102569000D01*
X142138400Y-102576620D01*
X142176500Y-102584240D01*
X142217140Y-102591860D01*
X142245080Y-102596940D01*
X142257780Y-102599480D01*
X142260320Y-102604560D01*
X142270480Y-102624880D01*
X142285720Y-102655360D01*
X142300960Y-102690920D01*
X142316200Y-102729020D01*
X142328900Y-102764580D01*
X142339060Y-102789980D01*
X142344140Y-102805220D01*
X142339060Y-102815380D01*
X142323820Y-102838240D01*
X142300960Y-102871260D01*
X142275560Y-102909360D01*
X142247620Y-102950000D01*
X142224760Y-102983020D01*
X142209520Y-103008420D01*
X142201900Y-103018580D01*
X142206980Y-103026200D01*
X142222220Y-103043980D01*
X142250160Y-103074460D01*
X142295880Y-103120180D01*
X142303500Y-103125260D01*
X142336520Y-103160820D01*
X142367000Y-103186220D01*
X142387320Y-103206540D01*
X142397480Y-103211620D01*
X142397480Y-103211620D01*
G37*
X142397480Y-103211620D02*
X142407640Y-103206540D01*
X142430500Y-103191300D01*
X142463520Y-103170980D01*
X142504160Y-103143040D01*
X142542260Y-103117640D01*
X142575280Y-103094780D01*
X142598140Y-103079540D01*
X142608300Y-103074460D01*
X142613380Y-103077000D01*
X142631160Y-103087160D01*
X142659100Y-103099860D01*
X142674340Y-103107480D01*
X142699740Y-103120180D01*
X142712440Y-103122720D01*
X142714980Y-103117640D01*
X142725140Y-103099860D01*
X142737840Y-103066840D01*
X142758160Y-103023660D01*
X142778480Y-102972860D01*
X142801340Y-102916980D01*
X142824200Y-102861100D01*
X142847060Y-102807760D01*
X142867380Y-102759500D01*
X142882620Y-102721400D01*
X142892780Y-102693460D01*
X142897860Y-102683300D01*
X142895320Y-102680760D01*
X142882620Y-102668060D01*
X142862300Y-102652820D01*
X142814040Y-102612180D01*
X142768320Y-102553760D01*
X142737840Y-102487720D01*
X142730220Y-102414060D01*
X142737840Y-102348020D01*
X142763240Y-102284520D01*
X142808960Y-102223560D01*
X142864840Y-102180380D01*
X142930880Y-102152440D01*
X143002000Y-102144820D01*
X143070580Y-102152440D01*
X143136620Y-102177840D01*
X143197580Y-102223560D01*
X143220440Y-102251500D01*
X143256000Y-102312460D01*
X143276320Y-102373420D01*
X143276320Y-102388660D01*
X143273780Y-102459780D01*
X143253460Y-102528360D01*
X143217900Y-102586780D01*
X143164560Y-102637580D01*
X143159480Y-102642660D01*
X143134080Y-102660440D01*
X143118840Y-102670600D01*
X143106140Y-102680760D01*
X143195040Y-102896660D01*
X143210280Y-102932220D01*
X143235680Y-102990640D01*
X143256000Y-103041440D01*
X143273780Y-103082080D01*
X143286480Y-103107480D01*
X143291560Y-103120180D01*
X143299180Y-103120180D01*
X143314420Y-103115100D01*
X143344900Y-103099860D01*
X143365220Y-103089700D01*
X143388080Y-103079540D01*
X143398240Y-103074460D01*
X143408400Y-103079540D01*
X143428720Y-103094780D01*
X143461740Y-103115100D01*
X143499840Y-103140500D01*
X143535400Y-103165900D01*
X143570960Y-103188760D01*
X143593820Y-103204000D01*
X143606520Y-103211620D01*
X143609060Y-103211620D01*
X143619220Y-103204000D01*
X143639540Y-103188760D01*
X143667480Y-103160820D01*
X143708120Y-103120180D01*
X143715740Y-103115100D01*
X143748760Y-103079540D01*
X143776700Y-103049060D01*
X143797020Y-103028740D01*
X143802100Y-103021120D01*
X143797020Y-103008420D01*
X143781780Y-102983020D01*
X143758920Y-102950000D01*
X143730980Y-102909360D01*
X143659860Y-102805220D01*
X143700500Y-102708700D01*
X143710660Y-102678220D01*
X143725900Y-102642660D01*
X143738600Y-102617260D01*
X143743680Y-102604560D01*
X143753840Y-102602020D01*
X143781780Y-102594400D01*
X143819880Y-102586780D01*
X143865600Y-102579160D01*
X143911320Y-102569000D01*
X143949420Y-102561380D01*
X143979900Y-102556300D01*
X143992600Y-102553760D01*
X143995140Y-102551220D01*
X143997680Y-102546140D01*
X144000220Y-102533440D01*
X144000220Y-102508040D01*
X144000220Y-102469940D01*
X144000220Y-102414060D01*
X144000220Y-102408980D01*
X144000220Y-102355640D01*
X144000220Y-102315000D01*
X143997680Y-102289600D01*
X143995140Y-102279440D01*
X143982440Y-102274360D01*
X143954500Y-102269280D01*
X143916400Y-102261660D01*
X143868140Y-102251500D01*
X143865600Y-102251500D01*
X143817340Y-102243880D01*
X143779240Y-102233720D01*
X143751300Y-102228640D01*
X143738600Y-102223560D01*
X143736060Y-102221020D01*
X143725900Y-102203240D01*
X143713200Y-102172760D01*
X143697960Y-102137200D01*
X143682720Y-102101640D01*
X143667480Y-102066080D01*
X143659860Y-102043220D01*
X143657320Y-102030520D01*
X143664940Y-102020360D01*
X143680180Y-101994960D01*
X143703040Y-101961940D01*
X143730980Y-101921300D01*
X143733520Y-101916220D01*
X143761460Y-101878120D01*
X143781780Y-101842560D01*
X143797020Y-101819700D01*
X143802100Y-101809540D01*
X143802100Y-101807000D01*
X143794480Y-101796840D01*
X143774160Y-101773980D01*
X143743680Y-101743500D01*
X143708120Y-101707940D01*
X143697960Y-101697780D01*
X143659860Y-101659680D01*
X143631920Y-101634280D01*
X143614140Y-101621580D01*
X143606520Y-101616500D01*
X143606520Y-101619040D01*
X143593820Y-101624120D01*
X143568420Y-101641900D01*
X143535400Y-101664760D01*
X143494760Y-101692700D01*
X143492220Y-101695240D01*
X143451580Y-101720640D01*
X143418560Y-101743500D01*
X143395700Y-101758740D01*
X143385540Y-101766360D01*
X143383000Y-101766360D01*
X143367760Y-101761280D01*
X143337280Y-101751120D01*
X143304260Y-101738420D01*
X143266160Y-101723180D01*
X143233140Y-101707940D01*
X143207740Y-101697780D01*
X143195040Y-101690160D01*
X143189960Y-101674920D01*
X143184880Y-101644440D01*
X143174720Y-101603800D01*
X143167100Y-101555540D01*
X143164560Y-101547920D01*
X143156940Y-101499660D01*
X143149320Y-101461560D01*
X143141700Y-101433620D01*
X143139160Y-101420920D01*
X143134080Y-101420920D01*
X143108680Y-101418380D01*
X143073120Y-101418380D01*
X143029940Y-101418380D01*
X142986760Y-101418380D01*
X142943580Y-101418380D01*
X142905480Y-101420920D01*
X142880080Y-101420920D01*
X142867380Y-101423460D01*
X142867380Y-101426000D01*
X142862300Y-101438700D01*
X142857220Y-101469180D01*
X142847060Y-101509820D01*
X142839440Y-101560620D01*
X142836900Y-101568240D01*
X142829280Y-101616500D01*
X142819120Y-101654600D01*
X142814040Y-101682540D01*
X142811500Y-101692700D01*
X142806420Y-101695240D01*
X142788640Y-101702860D01*
X142755620Y-101715560D01*
X142714980Y-101733340D01*
X142623540Y-101768900D01*
X142511780Y-101692700D01*
X142501620Y-101685080D01*
X142460980Y-101657140D01*
X142427960Y-101636820D01*
X142405100Y-101621580D01*
X142394940Y-101616500D01*
X142384780Y-101626660D01*
X142361920Y-101646980D01*
X142331440Y-101677460D01*
X142295880Y-101710480D01*
X142270480Y-101738420D01*
X142240000Y-101768900D01*
X142219680Y-101789220D01*
X142209520Y-101804460D01*
X142204440Y-101812080D01*
X142206980Y-101817160D01*
X142212060Y-101829860D01*
X142229840Y-101852720D01*
X142252700Y-101888280D01*
X142280640Y-101926380D01*
X142303500Y-101961940D01*
X142326360Y-101997500D01*
X142341600Y-102025440D01*
X142349220Y-102038140D01*
X142346680Y-102043220D01*
X142339060Y-102066080D01*
X142326360Y-102099100D01*
X142308580Y-102139740D01*
X142270480Y-102228640D01*
X142212060Y-102238800D01*
X142176500Y-102246420D01*
X142125700Y-102254040D01*
X142079980Y-102264200D01*
X142006320Y-102279440D01*
X142003780Y-102546140D01*
X142013940Y-102551220D01*
X142026640Y-102556300D01*
X142052040Y-102561380D01*
X142092680Y-102569000D01*
X142138400Y-102576620D01*
X142176500Y-102584240D01*
X142217140Y-102591860D01*
X142245080Y-102596940D01*
X142257780Y-102599480D01*
X142260320Y-102604560D01*
X142270480Y-102624880D01*
X142285720Y-102655360D01*
X142300960Y-102690920D01*
X142316200Y-102729020D01*
X142328900Y-102764580D01*
X142339060Y-102789980D01*
X142344140Y-102805220D01*
X142339060Y-102815380D01*
X142323820Y-102838240D01*
X142300960Y-102871260D01*
X142275560Y-102909360D01*
X142247620Y-102950000D01*
X142224760Y-102983020D01*
X142209520Y-103008420D01*
X142201900Y-103018580D01*
X142206980Y-103026200D01*
X142222220Y-103043980D01*
X142250160Y-103074460D01*
X142295880Y-103120180D01*
X142303500Y-103125260D01*
X142336520Y-103160820D01*
X142367000Y-103186220D01*
X142387320Y-103206540D01*
X142397480Y-103211620D01*
D13*
X138398000Y-109252000D02*
X128398000Y-109252000D01*
X128398000Y-119252000D02*
X128398000Y-109252000D01*
X136898000Y-118752000D02*
X129898000Y-118752000D01*
X136898000Y-119252000D02*
X136898000Y-118752000D01*
X138398000Y-119252000D02*
X136898000Y-119252000D01*
X138398000Y-109252000D02*
X138398000Y-119252000D01*
X129898000Y-118752000D02*
X129898000Y-119252000D01*
X129898000Y-119252000D02*
X128398000Y-119252000D01*
X136398000Y-110240000D02*
X136698000Y-109640000D01*
X136698000Y-109640000D02*
X136098000Y-109640000D01*
X136098000Y-109640000D02*
X136398000Y-110240000D01*
D11*
X123511000Y-113805000D02*
X126171000Y-113805000D01*
X123511000Y-106125000D02*
X123511000Y-113805000D01*
X126171000Y-106125000D02*
X126171000Y-113805000D01*
X123511000Y-106125000D02*
X126171000Y-106125000D01*
X123511000Y-104855000D02*
X123511000Y-103525000D01*
X123511000Y-103525000D02*
X124841000Y-103525000D01*
X141291000Y-103525000D02*
X142621000Y-103525000D01*
X141291000Y-104855000D02*
X141291000Y-103525000D01*
X141291000Y-106125000D02*
X143951000Y-106125000D01*
X143951000Y-106125000D02*
X143951000Y-113805000D01*
X141291000Y-106125000D02*
X141291000Y-113805000D01*
X141291000Y-113805000D02*
X143951000Y-113805000D01*
X128107221Y-108587000D02*
X128432779Y-108587000D01*
X128107221Y-107567000D02*
X128432779Y-107567000D01*
X128018000Y-105501221D02*
X128018000Y-105826779D01*
X126998000Y-105501221D02*
X126998000Y-105826779D01*
X140210000Y-105374221D02*
X140210000Y-105699779D01*
X139190000Y-105374221D02*
X139190000Y-105699779D01*
D13*
X134342142Y-106592666D02*
X134389761Y-106640285D01*
X134437380Y-106783142D01*
X134437380Y-106878380D01*
X134389761Y-107021238D01*
X134294523Y-107116476D01*
X134199285Y-107164095D01*
X134008809Y-107211714D01*
X133865952Y-107211714D01*
X133675476Y-107164095D01*
X133580238Y-107116476D01*
X133485000Y-107021238D01*
X133437380Y-106878380D01*
X133437380Y-106783142D01*
X133485000Y-106640285D01*
X133532619Y-106592666D01*
X133532619Y-106211714D02*
X133485000Y-106164095D01*
X133437380Y-106068857D01*
X133437380Y-105830761D01*
X133485000Y-105735523D01*
X133532619Y-105687904D01*
X133627857Y-105640285D01*
X133723095Y-105640285D01*
X133865952Y-105687904D01*
X134437380Y-106259333D01*
X134437380Y-105640285D01*
X136358333Y-107767380D02*
X136025000Y-107291190D01*
X135786904Y-107767380D02*
X135786904Y-106767380D01*
X136167857Y-106767380D01*
X136263095Y-106815000D01*
X136310714Y-106862619D01*
X136358333Y-106957857D01*
X136358333Y-107100714D01*
X136310714Y-107195952D01*
X136263095Y-107243571D01*
X136167857Y-107291190D01*
X135786904Y-107291190D01*
X136691666Y-106767380D02*
X137358333Y-106767380D01*
X136929761Y-107767380D01*
D10*
X130251619Y-116440000D02*
X130175428Y-116401904D01*
X130061142Y-116401904D01*
X129946857Y-116440000D01*
X129870666Y-116516190D01*
X129832571Y-116592380D01*
X129794476Y-116744761D01*
X129794476Y-116859047D01*
X129832571Y-117011428D01*
X129870666Y-117087619D01*
X129946857Y-117163809D01*
X130061142Y-117201904D01*
X130137333Y-117201904D01*
X130251619Y-117163809D01*
X130289714Y-117125714D01*
X130289714Y-116859047D01*
X130137333Y-116859047D01*
X130632571Y-117201904D02*
X130632571Y-116668571D01*
X130632571Y-116820952D02*
X130670666Y-116744761D01*
X130708761Y-116706666D01*
X130784952Y-116668571D01*
X130861142Y-116668571D01*
X131242095Y-117201904D02*
X131165904Y-117163809D01*
X131127809Y-117125714D01*
X131089714Y-117049523D01*
X131089714Y-116820952D01*
X131127809Y-116744761D01*
X131165904Y-116706666D01*
X131242095Y-116668571D01*
X131356380Y-116668571D01*
X131432571Y-116706666D01*
X131470666Y-116744761D01*
X131508761Y-116820952D01*
X131508761Y-117049523D01*
X131470666Y-117125714D01*
X131432571Y-117163809D01*
X131356380Y-117201904D01*
X131242095Y-117201904D01*
X131775428Y-116668571D02*
X131965904Y-117201904D01*
X132156380Y-116668571D01*
X132765904Y-117163809D02*
X132689714Y-117201904D01*
X132537333Y-117201904D01*
X132461142Y-117163809D01*
X132423047Y-117087619D01*
X132423047Y-116782857D01*
X132461142Y-116706666D01*
X132537333Y-116668571D01*
X132689714Y-116668571D01*
X132765904Y-116706666D01*
X132804000Y-116782857D01*
X132804000Y-116859047D01*
X132423047Y-116935238D01*
X133718285Y-116973333D02*
X134099238Y-116973333D01*
X133642095Y-117201904D02*
X133908761Y-116401904D01*
X134175428Y-117201904D01*
X134442095Y-116668571D02*
X134442095Y-117201904D01*
X134442095Y-116744761D02*
X134480190Y-116706666D01*
X134556380Y-116668571D01*
X134670666Y-116668571D01*
X134746857Y-116706666D01*
X134784952Y-116782857D01*
X134784952Y-117201904D01*
X135508761Y-117201904D02*
X135508761Y-116782857D01*
X135470666Y-116706666D01*
X135394476Y-116668571D01*
X135242095Y-116668571D01*
X135165904Y-116706666D01*
X135508761Y-117163809D02*
X135432571Y-117201904D01*
X135242095Y-117201904D01*
X135165904Y-117163809D01*
X135127809Y-117087619D01*
X135127809Y-117011428D01*
X135165904Y-116935238D01*
X135242095Y-116897142D01*
X135432571Y-116897142D01*
X135508761Y-116859047D01*
X136004000Y-117201904D02*
X135927809Y-117163809D01*
X135889714Y-117087619D01*
X135889714Y-116401904D01*
X136423047Y-117201904D02*
X136346857Y-117163809D01*
X136308761Y-117125714D01*
X136270666Y-117049523D01*
X136270666Y-116820952D01*
X136308761Y-116744761D01*
X136346857Y-116706666D01*
X136423047Y-116668571D01*
X136537333Y-116668571D01*
X136613523Y-116706666D01*
X136651619Y-116744761D01*
X136689714Y-116820952D01*
X136689714Y-117049523D01*
X136651619Y-117125714D01*
X136613523Y-117163809D01*
X136537333Y-117201904D01*
X136423047Y-117201904D01*
X137375428Y-116668571D02*
X137375428Y-117316190D01*
X137337333Y-117392380D01*
X137299238Y-117430476D01*
X137223047Y-117468571D01*
X137108761Y-117468571D01*
X137032571Y-117430476D01*
X137375428Y-117163809D02*
X137299238Y-117201904D01*
X137146857Y-117201904D01*
X137070666Y-117163809D01*
X137032571Y-117125714D01*
X136994476Y-117049523D01*
X136994476Y-116820952D01*
X137032571Y-116744761D01*
X137070666Y-116706666D01*
X137146857Y-116668571D01*
X137299238Y-116668571D01*
X137375428Y-116706666D01*
D13*
X124634666Y-114006380D02*
X124634666Y-114720666D01*
X124587047Y-114863523D01*
X124491809Y-114958761D01*
X124348952Y-115006380D01*
X124253714Y-115006380D01*
X125634666Y-115006380D02*
X125063238Y-115006380D01*
X125348952Y-115006380D02*
X125348952Y-114006380D01*
X125253714Y-114149238D01*
X125158476Y-114244476D01*
X125063238Y-114292095D01*
X142160666Y-114006380D02*
X142160666Y-114720666D01*
X142113047Y-114863523D01*
X142017809Y-114958761D01*
X141874952Y-115006380D01*
X141779714Y-115006380D01*
X142589238Y-114101619D02*
X142636857Y-114054000D01*
X142732095Y-114006380D01*
X142970190Y-114006380D01*
X143065428Y-114054000D01*
X143113047Y-114101619D01*
X143160666Y-114196857D01*
X143160666Y-114292095D01*
X143113047Y-114434952D01*
X142541619Y-115006380D01*
X143160666Y-115006380D01*
X129119333Y-107005380D02*
X128786000Y-106529190D01*
X128547904Y-107005380D02*
X128547904Y-106005380D01*
X128928857Y-106005380D01*
X129024095Y-106053000D01*
X129071714Y-106100619D01*
X129119333Y-106195857D01*
X129119333Y-106338714D01*
X129071714Y-106433952D01*
X129024095Y-106481571D01*
X128928857Y-106529190D01*
X128547904Y-106529190D01*
X130024095Y-106005380D02*
X129547904Y-106005380D01*
X129500285Y-106481571D01*
X129547904Y-106433952D01*
X129643142Y-106386333D01*
X129881238Y-106386333D01*
X129976476Y-106433952D01*
X130024095Y-106481571D01*
X130071714Y-106576809D01*
X130071714Y-106814904D01*
X130024095Y-106910142D01*
X129976476Y-106957761D01*
X129881238Y-107005380D01*
X129643142Y-107005380D01*
X129547904Y-106957761D01*
X129500285Y-106910142D01*
X129484380Y-104687666D02*
X129008190Y-105021000D01*
X129484380Y-105259095D02*
X128484380Y-105259095D01*
X128484380Y-104878142D01*
X128532000Y-104782904D01*
X128579619Y-104735285D01*
X128674857Y-104687666D01*
X128817714Y-104687666D01*
X128912952Y-104735285D01*
X128960571Y-104782904D01*
X129008190Y-104878142D01*
X129008190Y-105259095D01*
X128484380Y-103830523D02*
X128484380Y-104021000D01*
X128532000Y-104116238D01*
X128579619Y-104163857D01*
X128722476Y-104259095D01*
X128912952Y-104306714D01*
X129293904Y-104306714D01*
X129389142Y-104259095D01*
X129436761Y-104211476D01*
X129484380Y-104116238D01*
X129484380Y-103925761D01*
X129436761Y-103830523D01*
X129389142Y-103782904D01*
X129293904Y-103735285D01*
X129055809Y-103735285D01*
X128960571Y-103782904D01*
X128912952Y-103830523D01*
X128865333Y-103925761D01*
X128865333Y-104116238D01*
X128912952Y-104211476D01*
X128960571Y-104259095D01*
X129055809Y-104306714D01*
X138882380Y-105830666D02*
X138406190Y-106164000D01*
X138882380Y-106402095D02*
X137882380Y-106402095D01*
X137882380Y-106021142D01*
X137930000Y-105925904D01*
X137977619Y-105878285D01*
X138072857Y-105830666D01*
X138215714Y-105830666D01*
X138310952Y-105878285D01*
X138358571Y-105925904D01*
X138406190Y-106021142D01*
X138406190Y-106402095D01*
X138310952Y-105259238D02*
X138263333Y-105354476D01*
X138215714Y-105402095D01*
X138120476Y-105449714D01*
X138072857Y-105449714D01*
X137977619Y-105402095D01*
X137930000Y-105354476D01*
X137882380Y-105259238D01*
X137882380Y-105068761D01*
X137930000Y-104973523D01*
X137977619Y-104925904D01*
X138072857Y-104878285D01*
X138120476Y-104878285D01*
X138215714Y-104925904D01*
X138263333Y-104973523D01*
X138310952Y-105068761D01*
X138310952Y-105259238D01*
X138358571Y-105354476D01*
X138406190Y-105402095D01*
X138501428Y-105449714D01*
X138691904Y-105449714D01*
X138787142Y-105402095D01*
X138834761Y-105354476D01*
X138882380Y-105259238D01*
X138882380Y-105068761D01*
X138834761Y-104973523D01*
X138787142Y-104925904D01*
X138691904Y-104878285D01*
X138501428Y-104878285D01*
X138406190Y-104925904D01*
X138358571Y-104973523D01*
X138310952Y-105068761D01*
%LPC*%
D10*
G36*
X132848493Y-106704535D02*
G01*
X132879435Y-106709125D01*
X132909778Y-106716725D01*
X132939230Y-106727263D01*
X132967508Y-106740638D01*
X132994338Y-106756719D01*
X133019463Y-106775353D01*
X133042640Y-106796360D01*
X133063647Y-106819537D01*
X133082281Y-106844662D01*
X133098362Y-106871492D01*
X133111737Y-106899770D01*
X133122275Y-106929222D01*
X133129875Y-106959565D01*
X133134465Y-106990507D01*
X133136000Y-107021750D01*
X133136000Y-107659250D01*
X133134465Y-107690493D01*
X133129875Y-107721435D01*
X133122275Y-107751778D01*
X133111737Y-107781230D01*
X133098362Y-107809508D01*
X133082281Y-107836338D01*
X133063647Y-107861463D01*
X133042640Y-107884640D01*
X133019463Y-107905647D01*
X132994338Y-107924281D01*
X132967508Y-107940362D01*
X132939230Y-107953737D01*
X132909778Y-107964275D01*
X132879435Y-107971875D01*
X132848493Y-107976465D01*
X132817250Y-107978000D01*
X132104750Y-107978000D01*
X132073507Y-107976465D01*
X132042565Y-107971875D01*
X132012222Y-107964275D01*
X131982770Y-107953737D01*
X131954492Y-107940362D01*
X131927662Y-107924281D01*
X131902537Y-107905647D01*
X131879360Y-107884640D01*
X131858353Y-107861463D01*
X131839719Y-107836338D01*
X131823638Y-107809508D01*
X131810263Y-107781230D01*
X131799725Y-107751778D01*
X131792125Y-107721435D01*
X131787535Y-107690493D01*
X131786000Y-107659250D01*
X131786000Y-107021750D01*
X131787535Y-106990507D01*
X131792125Y-106959565D01*
X131799725Y-106929222D01*
X131810263Y-106899770D01*
X131823638Y-106871492D01*
X131839719Y-106844662D01*
X131858353Y-106819537D01*
X131879360Y-106796360D01*
X131902537Y-106775353D01*
X131927662Y-106756719D01*
X131954492Y-106740638D01*
X131982770Y-106727263D01*
X132012222Y-106716725D01*
X132042565Y-106709125D01*
X132073507Y-106704535D01*
X132104750Y-106703000D01*
X132817250Y-106703000D01*
X132848493Y-106704535D01*
X132848493Y-106704535D01*
G37*
D14*
X132461000Y-107340500D03*
D10*
G36*
X132848493Y-105129535D02*
G01*
X132879435Y-105134125D01*
X132909778Y-105141725D01*
X132939230Y-105152263D01*
X132967508Y-105165638D01*
X132994338Y-105181719D01*
X133019463Y-105200353D01*
X133042640Y-105221360D01*
X133063647Y-105244537D01*
X133082281Y-105269662D01*
X133098362Y-105296492D01*
X133111737Y-105324770D01*
X133122275Y-105354222D01*
X133129875Y-105384565D01*
X133134465Y-105415507D01*
X133136000Y-105446750D01*
X133136000Y-106084250D01*
X133134465Y-106115493D01*
X133129875Y-106146435D01*
X133122275Y-106176778D01*
X133111737Y-106206230D01*
X133098362Y-106234508D01*
X133082281Y-106261338D01*
X133063647Y-106286463D01*
X133042640Y-106309640D01*
X133019463Y-106330647D01*
X132994338Y-106349281D01*
X132967508Y-106365362D01*
X132939230Y-106378737D01*
X132909778Y-106389275D01*
X132879435Y-106396875D01*
X132848493Y-106401465D01*
X132817250Y-106403000D01*
X132104750Y-106403000D01*
X132073507Y-106401465D01*
X132042565Y-106396875D01*
X132012222Y-106389275D01*
X131982770Y-106378737D01*
X131954492Y-106365362D01*
X131927662Y-106349281D01*
X131902537Y-106330647D01*
X131879360Y-106309640D01*
X131858353Y-106286463D01*
X131839719Y-106261338D01*
X131823638Y-106234508D01*
X131810263Y-106206230D01*
X131799725Y-106176778D01*
X131792125Y-106146435D01*
X131787535Y-106115493D01*
X131786000Y-106084250D01*
X131786000Y-105446750D01*
X131787535Y-105415507D01*
X131792125Y-105384565D01*
X131799725Y-105354222D01*
X131810263Y-105324770D01*
X131823638Y-105296492D01*
X131839719Y-105269662D01*
X131858353Y-105244537D01*
X131879360Y-105221360D01*
X131902537Y-105200353D01*
X131927662Y-105181719D01*
X131954492Y-105165638D01*
X131982770Y-105152263D01*
X132012222Y-105141725D01*
X132042565Y-105134125D01*
X132073507Y-105129535D01*
X132104750Y-105128000D01*
X132817250Y-105128000D01*
X132848493Y-105129535D01*
X132848493Y-105129535D01*
G37*
D14*
X132461000Y-105765500D03*
D10*
G36*
X140075493Y-107403535D02*
G01*
X140106435Y-107408125D01*
X140136778Y-107415725D01*
X140166230Y-107426263D01*
X140194508Y-107439638D01*
X140221338Y-107455719D01*
X140246463Y-107474353D01*
X140269640Y-107495360D01*
X140290647Y-107518537D01*
X140309281Y-107543662D01*
X140325362Y-107570492D01*
X140338737Y-107598770D01*
X140349275Y-107628222D01*
X140356875Y-107658565D01*
X140361465Y-107689507D01*
X140363000Y-107720750D01*
X140363000Y-108433250D01*
X140361465Y-108464493D01*
X140356875Y-108495435D01*
X140349275Y-108525778D01*
X140338737Y-108555230D01*
X140325362Y-108583508D01*
X140309281Y-108610338D01*
X140290647Y-108635463D01*
X140269640Y-108658640D01*
X140246463Y-108679647D01*
X140221338Y-108698281D01*
X140194508Y-108714362D01*
X140166230Y-108727737D01*
X140136778Y-108738275D01*
X140106435Y-108745875D01*
X140075493Y-108750465D01*
X140044250Y-108752000D01*
X139406750Y-108752000D01*
X139375507Y-108750465D01*
X139344565Y-108745875D01*
X139314222Y-108738275D01*
X139284770Y-108727737D01*
X139256492Y-108714362D01*
X139229662Y-108698281D01*
X139204537Y-108679647D01*
X139181360Y-108658640D01*
X139160353Y-108635463D01*
X139141719Y-108610338D01*
X139125638Y-108583508D01*
X139112263Y-108555230D01*
X139101725Y-108525778D01*
X139094125Y-108495435D01*
X139089535Y-108464493D01*
X139088000Y-108433250D01*
X139088000Y-107720750D01*
X139089535Y-107689507D01*
X139094125Y-107658565D01*
X139101725Y-107628222D01*
X139112263Y-107598770D01*
X139125638Y-107570492D01*
X139141719Y-107543662D01*
X139160353Y-107518537D01*
X139181360Y-107495360D01*
X139204537Y-107474353D01*
X139229662Y-107455719D01*
X139256492Y-107439638D01*
X139284770Y-107426263D01*
X139314222Y-107415725D01*
X139344565Y-107408125D01*
X139375507Y-107403535D01*
X139406750Y-107402000D01*
X140044250Y-107402000D01*
X140075493Y-107403535D01*
X140075493Y-107403535D01*
G37*
D14*
X139725500Y-108077000D03*
D10*
G36*
X138500493Y-107403535D02*
G01*
X138531435Y-107408125D01*
X138561778Y-107415725D01*
X138591230Y-107426263D01*
X138619508Y-107439638D01*
X138646338Y-107455719D01*
X138671463Y-107474353D01*
X138694640Y-107495360D01*
X138715647Y-107518537D01*
X138734281Y-107543662D01*
X138750362Y-107570492D01*
X138763737Y-107598770D01*
X138774275Y-107628222D01*
X138781875Y-107658565D01*
X138786465Y-107689507D01*
X138788000Y-107720750D01*
X138788000Y-108433250D01*
X138786465Y-108464493D01*
X138781875Y-108495435D01*
X138774275Y-108525778D01*
X138763737Y-108555230D01*
X138750362Y-108583508D01*
X138734281Y-108610338D01*
X138715647Y-108635463D01*
X138694640Y-108658640D01*
X138671463Y-108679647D01*
X138646338Y-108698281D01*
X138619508Y-108714362D01*
X138591230Y-108727737D01*
X138561778Y-108738275D01*
X138531435Y-108745875D01*
X138500493Y-108750465D01*
X138469250Y-108752000D01*
X137831750Y-108752000D01*
X137800507Y-108750465D01*
X137769565Y-108745875D01*
X137739222Y-108738275D01*
X137709770Y-108727737D01*
X137681492Y-108714362D01*
X137654662Y-108698281D01*
X137629537Y-108679647D01*
X137606360Y-108658640D01*
X137585353Y-108635463D01*
X137566719Y-108610338D01*
X137550638Y-108583508D01*
X137537263Y-108555230D01*
X137526725Y-108525778D01*
X137519125Y-108495435D01*
X137514535Y-108464493D01*
X137513000Y-108433250D01*
X137513000Y-107720750D01*
X137514535Y-107689507D01*
X137519125Y-107658565D01*
X137526725Y-107628222D01*
X137537263Y-107598770D01*
X137550638Y-107570492D01*
X137566719Y-107543662D01*
X137585353Y-107518537D01*
X137606360Y-107495360D01*
X137629537Y-107474353D01*
X137654662Y-107455719D01*
X137681492Y-107439638D01*
X137709770Y-107426263D01*
X137739222Y-107415725D01*
X137769565Y-107408125D01*
X137800507Y-107403535D01*
X137831750Y-107402000D01*
X138469250Y-107402000D01*
X138500493Y-107403535D01*
X138500493Y-107403535D01*
G37*
D14*
X138150500Y-108077000D03*
D15*
X136398000Y-111252000D03*
D16*
X134398000Y-111252000D03*
X132398000Y-111252000D03*
X130398000Y-111252000D03*
D17*
X124841000Y-104855000D03*
D18*
X124841000Y-107395000D03*
X124841000Y-109935000D03*
X124841000Y-112475000D03*
X142621000Y-112475000D03*
X142621000Y-109935000D03*
X142621000Y-107395000D03*
D17*
X142621000Y-104855000D03*
D10*
G36*
X129407493Y-107403535D02*
G01*
X129438435Y-107408125D01*
X129468778Y-107415725D01*
X129498230Y-107426263D01*
X129526508Y-107439638D01*
X129553338Y-107455719D01*
X129578463Y-107474353D01*
X129601640Y-107495360D01*
X129622647Y-107518537D01*
X129641281Y-107543662D01*
X129657362Y-107570492D01*
X129670737Y-107598770D01*
X129681275Y-107628222D01*
X129688875Y-107658565D01*
X129693465Y-107689507D01*
X129695000Y-107720750D01*
X129695000Y-108433250D01*
X129693465Y-108464493D01*
X129688875Y-108495435D01*
X129681275Y-108525778D01*
X129670737Y-108555230D01*
X129657362Y-108583508D01*
X129641281Y-108610338D01*
X129622647Y-108635463D01*
X129601640Y-108658640D01*
X129578463Y-108679647D01*
X129553338Y-108698281D01*
X129526508Y-108714362D01*
X129498230Y-108727737D01*
X129468778Y-108738275D01*
X129438435Y-108745875D01*
X129407493Y-108750465D01*
X129376250Y-108752000D01*
X128738750Y-108752000D01*
X128707507Y-108750465D01*
X128676565Y-108745875D01*
X128646222Y-108738275D01*
X128616770Y-108727737D01*
X128588492Y-108714362D01*
X128561662Y-108698281D01*
X128536537Y-108679647D01*
X128513360Y-108658640D01*
X128492353Y-108635463D01*
X128473719Y-108610338D01*
X128457638Y-108583508D01*
X128444263Y-108555230D01*
X128433725Y-108525778D01*
X128426125Y-108495435D01*
X128421535Y-108464493D01*
X128420000Y-108433250D01*
X128420000Y-107720750D01*
X128421535Y-107689507D01*
X128426125Y-107658565D01*
X128433725Y-107628222D01*
X128444263Y-107598770D01*
X128457638Y-107570492D01*
X128473719Y-107543662D01*
X128492353Y-107518537D01*
X128513360Y-107495360D01*
X128536537Y-107474353D01*
X128561662Y-107455719D01*
X128588492Y-107439638D01*
X128616770Y-107426263D01*
X128646222Y-107415725D01*
X128676565Y-107408125D01*
X128707507Y-107403535D01*
X128738750Y-107402000D01*
X129376250Y-107402000D01*
X129407493Y-107403535D01*
X129407493Y-107403535D01*
G37*
D14*
X129057500Y-108077000D03*
D10*
G36*
X127832493Y-107403535D02*
G01*
X127863435Y-107408125D01*
X127893778Y-107415725D01*
X127923230Y-107426263D01*
X127951508Y-107439638D01*
X127978338Y-107455719D01*
X128003463Y-107474353D01*
X128026640Y-107495360D01*
X128047647Y-107518537D01*
X128066281Y-107543662D01*
X128082362Y-107570492D01*
X128095737Y-107598770D01*
X128106275Y-107628222D01*
X128113875Y-107658565D01*
X128118465Y-107689507D01*
X128120000Y-107720750D01*
X128120000Y-108433250D01*
X128118465Y-108464493D01*
X128113875Y-108495435D01*
X128106275Y-108525778D01*
X128095737Y-108555230D01*
X128082362Y-108583508D01*
X128066281Y-108610338D01*
X128047647Y-108635463D01*
X128026640Y-108658640D01*
X128003463Y-108679647D01*
X127978338Y-108698281D01*
X127951508Y-108714362D01*
X127923230Y-108727737D01*
X127893778Y-108738275D01*
X127863435Y-108745875D01*
X127832493Y-108750465D01*
X127801250Y-108752000D01*
X127163750Y-108752000D01*
X127132507Y-108750465D01*
X127101565Y-108745875D01*
X127071222Y-108738275D01*
X127041770Y-108727737D01*
X127013492Y-108714362D01*
X126986662Y-108698281D01*
X126961537Y-108679647D01*
X126938360Y-108658640D01*
X126917353Y-108635463D01*
X126898719Y-108610338D01*
X126882638Y-108583508D01*
X126869263Y-108555230D01*
X126858725Y-108525778D01*
X126851125Y-108495435D01*
X126846535Y-108464493D01*
X126845000Y-108433250D01*
X126845000Y-107720750D01*
X126846535Y-107689507D01*
X126851125Y-107658565D01*
X126858725Y-107628222D01*
X126869263Y-107598770D01*
X126882638Y-107570492D01*
X126898719Y-107543662D01*
X126917353Y-107518537D01*
X126938360Y-107495360D01*
X126961537Y-107474353D01*
X126986662Y-107455719D01*
X127013492Y-107439638D01*
X127041770Y-107426263D01*
X127071222Y-107415725D01*
X127101565Y-107408125D01*
X127132507Y-107403535D01*
X127163750Y-107402000D01*
X127801250Y-107402000D01*
X127832493Y-107403535D01*
X127832493Y-107403535D01*
G37*
D14*
X127482500Y-108077000D03*
D10*
G36*
X127895493Y-104240535D02*
G01*
X127926435Y-104245125D01*
X127956778Y-104252725D01*
X127986230Y-104263263D01*
X128014508Y-104276638D01*
X128041338Y-104292719D01*
X128066463Y-104311353D01*
X128089640Y-104332360D01*
X128110647Y-104355537D01*
X128129281Y-104380662D01*
X128145362Y-104407492D01*
X128158737Y-104435770D01*
X128169275Y-104465222D01*
X128176875Y-104495565D01*
X128181465Y-104526507D01*
X128183000Y-104557750D01*
X128183000Y-105195250D01*
X128181465Y-105226493D01*
X128176875Y-105257435D01*
X128169275Y-105287778D01*
X128158737Y-105317230D01*
X128145362Y-105345508D01*
X128129281Y-105372338D01*
X128110647Y-105397463D01*
X128089640Y-105420640D01*
X128066463Y-105441647D01*
X128041338Y-105460281D01*
X128014508Y-105476362D01*
X127986230Y-105489737D01*
X127956778Y-105500275D01*
X127926435Y-105507875D01*
X127895493Y-105512465D01*
X127864250Y-105514000D01*
X127151750Y-105514000D01*
X127120507Y-105512465D01*
X127089565Y-105507875D01*
X127059222Y-105500275D01*
X127029770Y-105489737D01*
X127001492Y-105476362D01*
X126974662Y-105460281D01*
X126949537Y-105441647D01*
X126926360Y-105420640D01*
X126905353Y-105397463D01*
X126886719Y-105372338D01*
X126870638Y-105345508D01*
X126857263Y-105317230D01*
X126846725Y-105287778D01*
X126839125Y-105257435D01*
X126834535Y-105226493D01*
X126833000Y-105195250D01*
X126833000Y-104557750D01*
X126834535Y-104526507D01*
X126839125Y-104495565D01*
X126846725Y-104465222D01*
X126857263Y-104435770D01*
X126870638Y-104407492D01*
X126886719Y-104380662D01*
X126905353Y-104355537D01*
X126926360Y-104332360D01*
X126949537Y-104311353D01*
X126974662Y-104292719D01*
X127001492Y-104276638D01*
X127029770Y-104263263D01*
X127059222Y-104252725D01*
X127089565Y-104245125D01*
X127120507Y-104240535D01*
X127151750Y-104239000D01*
X127864250Y-104239000D01*
X127895493Y-104240535D01*
X127895493Y-104240535D01*
G37*
D14*
X127508000Y-104876500D03*
D10*
G36*
X127895493Y-105815535D02*
G01*
X127926435Y-105820125D01*
X127956778Y-105827725D01*
X127986230Y-105838263D01*
X128014508Y-105851638D01*
X128041338Y-105867719D01*
X128066463Y-105886353D01*
X128089640Y-105907360D01*
X128110647Y-105930537D01*
X128129281Y-105955662D01*
X128145362Y-105982492D01*
X128158737Y-106010770D01*
X128169275Y-106040222D01*
X128176875Y-106070565D01*
X128181465Y-106101507D01*
X128183000Y-106132750D01*
X128183000Y-106770250D01*
X128181465Y-106801493D01*
X128176875Y-106832435D01*
X128169275Y-106862778D01*
X128158737Y-106892230D01*
X128145362Y-106920508D01*
X128129281Y-106947338D01*
X128110647Y-106972463D01*
X128089640Y-106995640D01*
X128066463Y-107016647D01*
X128041338Y-107035281D01*
X128014508Y-107051362D01*
X127986230Y-107064737D01*
X127956778Y-107075275D01*
X127926435Y-107082875D01*
X127895493Y-107087465D01*
X127864250Y-107089000D01*
X127151750Y-107089000D01*
X127120507Y-107087465D01*
X127089565Y-107082875D01*
X127059222Y-107075275D01*
X127029770Y-107064737D01*
X127001492Y-107051362D01*
X126974662Y-107035281D01*
X126949537Y-107016647D01*
X126926360Y-106995640D01*
X126905353Y-106972463D01*
X126886719Y-106947338D01*
X126870638Y-106920508D01*
X126857263Y-106892230D01*
X126846725Y-106862778D01*
X126839125Y-106832435D01*
X126834535Y-106801493D01*
X126833000Y-106770250D01*
X126833000Y-106132750D01*
X126834535Y-106101507D01*
X126839125Y-106070565D01*
X126846725Y-106040222D01*
X126857263Y-106010770D01*
X126870638Y-105982492D01*
X126886719Y-105955662D01*
X126905353Y-105930537D01*
X126926360Y-105907360D01*
X126949537Y-105886353D01*
X126974662Y-105867719D01*
X127001492Y-105851638D01*
X127029770Y-105838263D01*
X127059222Y-105827725D01*
X127089565Y-105820125D01*
X127120507Y-105815535D01*
X127151750Y-105814000D01*
X127864250Y-105814000D01*
X127895493Y-105815535D01*
X127895493Y-105815535D01*
G37*
D14*
X127508000Y-106451500D03*
D10*
G36*
X140087493Y-104113535D02*
G01*
X140118435Y-104118125D01*
X140148778Y-104125725D01*
X140178230Y-104136263D01*
X140206508Y-104149638D01*
X140233338Y-104165719D01*
X140258463Y-104184353D01*
X140281640Y-104205360D01*
X140302647Y-104228537D01*
X140321281Y-104253662D01*
X140337362Y-104280492D01*
X140350737Y-104308770D01*
X140361275Y-104338222D01*
X140368875Y-104368565D01*
X140373465Y-104399507D01*
X140375000Y-104430750D01*
X140375000Y-105068250D01*
X140373465Y-105099493D01*
X140368875Y-105130435D01*
X140361275Y-105160778D01*
X140350737Y-105190230D01*
X140337362Y-105218508D01*
X140321281Y-105245338D01*
X140302647Y-105270463D01*
X140281640Y-105293640D01*
X140258463Y-105314647D01*
X140233338Y-105333281D01*
X140206508Y-105349362D01*
X140178230Y-105362737D01*
X140148778Y-105373275D01*
X140118435Y-105380875D01*
X140087493Y-105385465D01*
X140056250Y-105387000D01*
X139343750Y-105387000D01*
X139312507Y-105385465D01*
X139281565Y-105380875D01*
X139251222Y-105373275D01*
X139221770Y-105362737D01*
X139193492Y-105349362D01*
X139166662Y-105333281D01*
X139141537Y-105314647D01*
X139118360Y-105293640D01*
X139097353Y-105270463D01*
X139078719Y-105245338D01*
X139062638Y-105218508D01*
X139049263Y-105190230D01*
X139038725Y-105160778D01*
X139031125Y-105130435D01*
X139026535Y-105099493D01*
X139025000Y-105068250D01*
X139025000Y-104430750D01*
X139026535Y-104399507D01*
X139031125Y-104368565D01*
X139038725Y-104338222D01*
X139049263Y-104308770D01*
X139062638Y-104280492D01*
X139078719Y-104253662D01*
X139097353Y-104228537D01*
X139118360Y-104205360D01*
X139141537Y-104184353D01*
X139166662Y-104165719D01*
X139193492Y-104149638D01*
X139221770Y-104136263D01*
X139251222Y-104125725D01*
X139281565Y-104118125D01*
X139312507Y-104113535D01*
X139343750Y-104112000D01*
X140056250Y-104112000D01*
X140087493Y-104113535D01*
X140087493Y-104113535D01*
G37*
D14*
X139700000Y-104749500D03*
D10*
G36*
X140087493Y-105688535D02*
G01*
X140118435Y-105693125D01*
X140148778Y-105700725D01*
X140178230Y-105711263D01*
X140206508Y-105724638D01*
X140233338Y-105740719D01*
X140258463Y-105759353D01*
X140281640Y-105780360D01*
X140302647Y-105803537D01*
X140321281Y-105828662D01*
X140337362Y-105855492D01*
X140350737Y-105883770D01*
X140361275Y-105913222D01*
X140368875Y-105943565D01*
X140373465Y-105974507D01*
X140375000Y-106005750D01*
X140375000Y-106643250D01*
X140373465Y-106674493D01*
X140368875Y-106705435D01*
X140361275Y-106735778D01*
X140350737Y-106765230D01*
X140337362Y-106793508D01*
X140321281Y-106820338D01*
X140302647Y-106845463D01*
X140281640Y-106868640D01*
X140258463Y-106889647D01*
X140233338Y-106908281D01*
X140206508Y-106924362D01*
X140178230Y-106937737D01*
X140148778Y-106948275D01*
X140118435Y-106955875D01*
X140087493Y-106960465D01*
X140056250Y-106962000D01*
X139343750Y-106962000D01*
X139312507Y-106960465D01*
X139281565Y-106955875D01*
X139251222Y-106948275D01*
X139221770Y-106937737D01*
X139193492Y-106924362D01*
X139166662Y-106908281D01*
X139141537Y-106889647D01*
X139118360Y-106868640D01*
X139097353Y-106845463D01*
X139078719Y-106820338D01*
X139062638Y-106793508D01*
X139049263Y-106765230D01*
X139038725Y-106735778D01*
X139031125Y-106705435D01*
X139026535Y-106674493D01*
X139025000Y-106643250D01*
X139025000Y-106005750D01*
X139026535Y-105974507D01*
X139031125Y-105943565D01*
X139038725Y-105913222D01*
X139049263Y-105883770D01*
X139062638Y-105855492D01*
X139078719Y-105828662D01*
X139097353Y-105803537D01*
X139118360Y-105780360D01*
X139141537Y-105759353D01*
X139166662Y-105740719D01*
X139193492Y-105724638D01*
X139221770Y-105711263D01*
X139251222Y-105700725D01*
X139281565Y-105693125D01*
X139312507Y-105688535D01*
X139343750Y-105687000D01*
X140056250Y-105687000D01*
X140087493Y-105688535D01*
X140087493Y-105688535D01*
G37*
D14*
X139700000Y-106324500D03*
M02*
